<?xml version="1.0" encoding="utf-8"?>
<!-- Generator: Adobe Illustrator 22.1.0, SVG Export Plug-In . SVG Version: 6.00 Build 0)  -->
<svg version="1.1" id="Calque_1" xmlns="http://www.w3.org/2000/svg" xmlns:xlink="http://www.w3.org/1999/xlink" x="0px" y="0px"
	 viewBox="0 0 170 170" style="enable-background:new 0 0 170 170;" xml:space="preserve">
<style type="text/css">
	.st0{opacity:0.3;fill:#FFFFFF;}
	.st1{fill:#603512;}
	.st2{fill:#FCF8D2;}
	.st3{fill:#F7CB45;}
	.st4{fill:#DEB34D;}
	.st5{fill:#2D1D10;}
	.st6{fill:#FFFFFF;}
	.st7{fill:#8A398C;}
	.st8{fill:url(#SVGID_1_);}
	.st9{fill:#EED3E7;}
	.st10{fill:#C690C0;}
</style>
<g>
	<polygon class="st0" points="97.8,44.5 113.2,4.8 100.3,45.4 118.2,6.7 102.8,46.4 123,8.9 105.2,47.6 127.7,11.5 107.5,48.9 
		132.2,14.3 109.7,50.4 136.6,17.4 111.8,52 140.7,20.8 113.9,53.8 144.7,24.4 115.8,55.7 148.3,28.3 117.5,57.6 151.8,32.4 
		119.2,59.7 154.9,36.7 120.7,61.9 157.8,41.1 122.1,64.2 160.5,45.8 123.3,66.6 162.8,50.6 124.4,69 164.8,55.6 125.3,71.5 
		166.5,60.6 126.1,74.1 167.8,65.8 126.7,76.7 168.9,71 127.1,79.3 169.6,76.3 127.4,82 170,81.7 127.5,84.7 170,87 127.5,87.3 
		169.7,92.3 127.2,90 169.1,97.6 126.8,92.6 168.1,102.9 126.3,95.3 166.8,108.1 125.5,97.8 165.2,113.2 124.7,100.3 163.3,118.2 
		123.6,102.8 161.1,123 122.4,105.2 158.5,127.7 121.1,107.5 155.7,132.2 119.6,109.7 152.6,136.6 118,111.8 149.2,140.7 
		116.2,113.9 145.6,144.7 114.3,115.8 141.7,148.3 112.4,117.5 137.6,151.8 110.3,119.2 133.3,154.9 108.1,120.7 128.9,157.8 
		105.8,122.1 124.2,160.5 103.4,123.3 119.4,162.8 101,124.4 114.4,164.8 98.5,125.3 109.4,166.5 95.9,126.1 104.2,167.8 
		93.3,126.7 99,168.9 90.7,127.1 93.7,169.6 88,127.4 88.3,170 85.3,127.5 83,170 82.7,127.5 77.7,169.7 80,127.2 72.4,169.1 
		77.4,126.8 67.1,168.1 74.8,126.3 61.9,166.8 72.2,125.5 56.8,165.2 69.7,124.7 51.8,163.3 67.2,123.6 47,161.1 64.8,122.4 
		42.3,158.5 62.5,121.1 37.8,155.7 60.3,119.6 33.4,152.6 58.2,118 29.3,149.2 56.1,116.2 25.4,145.6 54.2,114.3 21.7,141.7 
		52.5,112.4 18.2,137.6 50.8,110.3 15.1,133.3 49.3,108.1 12.2,128.9 47.9,105.8 9.5,124.2 46.7,103.4 7.2,119.4 45.6,101 
		5.2,114.4 44.7,98.5 3.5,109.4 43.9,95.9 2.2,104.2 43.3,93.3 1.1,99 42.9,90.7 0.4,93.7 42.6,88 0,88.3 42.5,85.3 0,83 42.6,82.7 
		0.3,77.7 42.8,80 0.9,72.4 43.2,77.4 1.9,67.1 43.7,74.8 3.2,61.9 44.5,72.2 4.8,56.8 45.4,69.7 6.7,51.8 46.4,67.2 8.9,47 
		47.6,64.8 11.5,42.3 48.9,62.5 14.3,37.8 50.4,60.3 17.4,33.4 52,58.2 20.8,29.3 53.8,56.1 24.4,25.4 55.7,54.2 28.3,21.7 
		57.6,52.5 32.4,18.2 59.7,50.8 36.7,15.1 61.9,49.3 41.1,12.2 64.2,47.9 45.8,9.5 66.6,46.7 50.6,7.2 69,45.6 55.6,5.2 71.5,44.7 
		60.6,3.5 74.1,43.9 65.8,2.2 76.7,43.3 71,1.1 79.3,42.9 76.3,0.4 82,42.6 81.7,0 84.7,42.5 87,0 87.3,42.6 92.3,0.3 90,42.8 
		97.6,0.9 92.6,43.2 102.9,1.9 95.3,43.7 108.1,3.2 	"/>
	<path class="st1" d="M111.9,70.1c-0.8-0.3-1.5-0.7-2.1-1.3l-7.1-6.9c-1-0.9-1.5-2.2-1.5-3.6c0-1.3,0.5-2.6,1.4-3.6l10.1-10.2
		c2.7-2.7,6.6-3.7,10.3-2.5c1.5,0.5,2.9,1.3,4,2.4c1.9,1.9,3,4.4,3,7.1c0,2.7-1,5.3-2.9,7.2l-9.8,10C116,70.2,113.9,70.8,111.9,70.1
		z"/>
	<path class="st1" d="M72.6,126.4c-22.5-7.1-35-31.2-27.9-53.7s31.2-35,53.7-27.9s35,31.2,27.9,53.7S95.1,133.5,72.6,126.4z"/>
	<path class="st2" d="M73.9,122.2c-20.2-6.4-31.4-28-25-48.2s28-31.4,48.2-25s31.4,28,25,48.2C115.7,117.4,94.1,128.6,73.9,122.2z"
		/>
	<circle class="st3" cx="85.5" cy="85.6" r="34"/>
	<circle class="st4" cx="88.1" cy="84.7" r="28.9"/>
	<circle class="st3" cx="82.5" cy="85.7" r="24.3"/>
	<g>
		<g>
			<path class="st5" d="M58.9,81.9c0,0-1.1,2.5-1.8,6.1c3.2-0.9,7.3-1.1,11.9-0.8C62,84.2,58.9,81.9,58.9,81.9z"/>
			<path class="st5" d="M109.6,98.2c-4.4-0.7-8.5-1.5-12.3-2.3c4.5,2.6,8.1,5.4,10.5,8.3C109.2,100.8,109.6,98.2,109.6,98.2z"/>
			<path class="st1" d="M107.8,104.2c-2.3-2.9-6-5.7-10.5-8.3c-12.9-2.8-22.1-6-28.3-8.7c-4.6-0.3-8.7-0.1-11.9,0.8
				c-1.3,7.3-0.8,19.3,14.1,26.6c1.6,0.6,3.1,1.2,4.8,1.7c3.9,1.2,7.8,2.1,11.4,2.6C99.6,119.2,105.3,110.4,107.8,104.2z"/>
		</g>
		<path class="st6" d="M65.2,84.8c0,0-2.2,4.7-0.5,7.9l4.1,1.3c0,0,4-2.8,5.5-4.7L65.2,84.8z"/>
		<path class="st6" d="M100.5,116.7c0,0-1.6-4.9-5-6.2l-3.9,1.8c0,0-1.1,4.7-0.9,7.2L100.5,116.7z"/>
	</g>
	<g>
		<ellipse transform="matrix(0.3015 -0.9535 0.9535 0.3015 0.1665 167.4372)" class="st7" cx="114.4" cy="83.6" rx="13" ry="13"/>
		<circle class="st6" cx="114.4" cy="83.6" r="11.2"/>
		<circle class="st1" cx="120.6" cy="80.4" r="2.5"/>
		<path class="st7" d="M103.5,80.4c0,0,11.6-0.2,21.7,7.7C120,101.2,98.2,96.1,103.5,80.4z"/>
	</g>
	<circle class="st2" cx="79.3" cy="55.6" r="5.3"/>
	<g>
		<ellipse transform="matrix(0.3015 -0.9535 0.9535 0.3015 -18.2381 109.2729)" class="st1" cx="65.5" cy="67.1" rx="13" ry="13"/>
		<circle class="st6" cx="65.5" cy="67.1" r="11.2"/>
		<circle class="st1" cx="58.3" cy="66.5" r="2.5"/>
	</g>
	
		<linearGradient id="SVGID_1_" gradientUnits="userSpaceOnUse" x1="339.5864" y1="138.4463" x2="346.5117" y2="119.2668" gradientTransform="matrix(0.8578 0.4589 -0.2441 0.7602 -148.7542 -197.6208)">
		<stop  offset="0" style="stop-color:#F7CB45"/>
		<stop  offset="1" style="stop-color:#D15599"/>
	</linearGradient>
	<path class="st8" d="M113.2,68.5l-9.9-9.8l12.2-12.4c2.3-2.3,6-2.3,8.3-0.1l0,0c3.2,3.2,3.3,8.4,0.1,11.6l-10.5,10.7
		C113.3,68.6,113.2,68.6,113.2,68.5z"/>
	<path class="st9" d="M124.6,55.4c0,0.2-0.1,0.3-0.2,0.5c0.4-0.6,0.8-1.3,1-2.1c0.8-3.2-1.1-6.4-4.3-7.2c-1.7-0.4-3.5,0-4.9,0.9
		c1.1-0.4,2.4-0.4,3.6-0.1C123.4,48.3,125.5,51.9,124.6,55.4z"/>
	<path class="st10" d="M104.4,88.2c0,0,9.9,13.1,19.5,0.7C124,88.9,114.3,94.1,104.4,88.2z"/>
</g>
</svg>
