<?xml version="1.0" encoding="utf-8"?>
<!-- Generator: Adobe Illustrator 22.1.0, SVG Export Plug-In . SVG Version: 6.00 Build 0)  -->
<svg version="1.1" id="Calque_1" xmlns="http://www.w3.org/2000/svg" xmlns:xlink="http://www.w3.org/1999/xlink" x="0px" y="0px"
	 viewBox="0 0 194.8 62.3" style="enable-background:new 0 0 194.8 62.3;" xml:space="preserve">
<style type="text/css">
	.st0{fill:#FFFFFF;}
</style>
<path class="st0" d="M42.8,8.9l-0.2-0.4c-1.4-2.6-3.4-4.7-5.8-6.2C34.4,0.8,31.7,0,28.6,0c-5.4-0.1-10.5,2.8-15.3,8.5
	C8.4,14.1,4.6,21.6,2.2,30.6l-0.5,2C-0.7,41.3-0.6,48.5,2.2,54c2.9,5.5,7.8,8.3,14.6,8.3c4.7,0,8.8-0.8,12.2-2.3
	c3.3-1.6,5.9-3.3,7.8-5.3l0.3-0.4l0.1-0.5l2.9-22.3l0.2-1.2l-0.9,0l-14.9-0.1l-0.9,0l-0.2,1.2l-1.6,8.2l-0.2,1.1l0.8,0.1l5.5,0.6
	l-1.3,8c-0.6,0.3-1.3,0.6-2.2,0.9c-1.1,0.4-2.6,0.6-4.4,0.5c-3.9,0-6.5-1.6-7.8-4.9c-1.3-3.3-1.3-7.8,0-13.5l0.5-2.1
	c1.3-5.8,3.4-10.5,6-14c2.6-3.5,5.4-5.1,8.7-5.1c1.5,0,2.7,0.3,3.8,0.8c0.9,0.4,1.6,1,2.1,1.7l-0.1,7.4l0,1l0.7,0l6.2,0l0.9,0
	l0.2-1.2l1.5-11.7L42.8,8.9z"/>
<path class="st0" d="M72.7,37.7L64.6,1.2l-0.2-0.8l-0.6,0l-5.8-0.1l-0.6,0l-0.2,0.8L44.7,37.6l-1.8,0.3L42.1,38l-0.1,1l-0.6,5.1
	l-0.1,1.2l0.9,0l11.5,0l0.9,0l0.1-1.2l0.4-5.1l0.1-1l-0.7-0.2l-1.2-0.3l1.2-3.7l9.2,0l0.8,3.7L63,38l-0.8,0.2l0,1L62,44.3l-0.1,1.2
	l0.9,0l11.5,0l0.9,0l0-1.2l0-5.1l0-1L74.5,38L72.7,37.7z M61.9,25.2l-4.8,0l3-10.2L61.9,25.2z"/>
<polygon class="st0" points="121.6,39.3 121.4,38.4 120.7,38.2 117.8,37.5 113.4,9 115.8,8.4 116.4,8.2 116.3,7.2 115.4,2.1 
	115.2,0.9 114.4,0.9 103.9,0.8 103.3,0.8 103.2,1.6 99.1,29.8 90.1,1.5 89.8,0.6 89.3,0.6 81.8,0.6 78.8,0.5 78,0.5 78,1.7 
	78.1,6.9 78.1,7.9 78.7,8.1 81.2,8.8 81.9,37.3 79.2,38 78.4,38.2 78.4,39.2 78.5,44.3 78.5,45.5 79.4,45.5 93.4,45.5 94.3,45.6 
	94.3,44.4 93.9,39.2 93.9,38.3 93.1,38.1 90.3,37.4 90,31.7 90,31.6 90,31.6 89,20.2 97.3,44.8 97.6,45.6 98.3,45.6 102.8,45.6 
	103.5,45.6 103.6,44.8 107.6,20.2 108.7,31.7 108.7,31.7 108.7,31.8 109.4,37.4 106.7,38.1 106,38.3 106.1,39.3 106.7,44.4 
	106.8,45.6 107.7,45.6 121.7,45.6 122.6,45.6 122.4,44.4 "/>
<polygon class="st0" points="151,33 150.7,31.8 149.8,31.8 144.9,31.8 144.1,31.8 144.3,32.9 145.1,36.8 136.3,36.8 134.1,27.1 
	143.9,27.1 144.8,27.2 144.5,26 142.8,19.5 142.5,18.3 141.6,18.3 132.2,18.2 130.3,10 138.2,10 139.4,14 139.7,15.1 140.5,15.1 
	145.1,15.1 146,15.1 145.6,13.9 142.4,2.4 142.1,1.2 141.3,1.2 121.9,1 118.8,1 118,0.9 118.2,2.1 119.2,7.2 119.3,8.2 120,8.4 
	122.6,9.1 128,37.5 125.4,38.2 124.7,38.4 124.9,39.4 125.8,44.4 126,45.6 127,45.6 153.6,45.7 154.6,45.7 154.2,44.5 "/>
<path class="st0" d="M193.2,45.4c-2.1-5-5.2-9.1-9.1-12.2c-3.7-3-8.4-5.4-13.9-7.2c-3.6-1.4-6.3-2.6-7.9-3.8c-1.4-1-2.3-2.3-2.8-3.8
	c-0.6-1.7-0.5-3.1,0.1-4.2c0.7-1.1,2-1.7,4-1.7c1.4,0,2.9,0.2,4.3,0.7c1.2,0.4,2.2,0.8,3,1.3l3.8,7.3l0.5,1l0.7,0l6.3,0l0.9,0
	l-0.5-1.2L177.7,10l-0.2-0.5l-0.4-0.4c-2.7-2.3-5.7-4.2-8.8-5.6c-3-1.4-6.1-2.1-9.2-2.2l0,0l0,0c-4.1,0-7.1,1.6-9,4.6
	c-2,3.1-2.3,7.3-0.8,12.3c1.5,5,4.1,9.1,7.8,12c3.6,2.8,8.4,5.2,14.4,7.2c3.3,1.1,5.8,2.3,7.3,3.5c1.4,1.1,2.5,2.5,3.2,4.4
	c0.7,1.8,0.7,3.1,0,4.2c-0.7,1.1-2.3,1.7-4.6,1.7c-1.9,0-3.7-0.3-5.4-0.9c-1.5-0.5-2.8-1.1-3.8-1.9l-3.4-7.6l-0.4-1l-0.8,0l-6.9,0
	l-0.9,0l0.3,1.2l3.5,11.9l0.1,0.5l0.4,0.3c2.9,2.6,6.2,4.7,9.8,6.2c3.7,1.5,7.5,2.2,11.5,2.2c5.6,0,9.5-1.5,11.8-4.4
	C195.4,54.8,195.3,50.6,193.2,45.4z"/>
<g>
	<path class="st0" d="M46.7,52h1.4v7.5h2.3v1.3h-3.7V52z"/>
	<path class="st0" d="M67.4,55.7h1.9V57h-1.9v2.6h2.4v1.3H66V52h3.8v1.3h-2.4V55.7z"/>
	<path class="st0" d="M90.2,60.8h-1.4l-0.2-1.6h-1.7l-0.2,1.6h-1.3l1.4-8.8h2L90.2,60.8z M87,58h1.3l-0.7-4.4L87,58z"/>
	<path class="st0" d="M107.9,55.9h1.9v2.8c0,1.4-0.7,2.2-2.1,2.2c-1.4,0-2.1-0.8-2.1-2.2v-4.6c0-1.4,0.7-2.2,2.1-2.2
		c1.4,0,2.1,0.8,2.1,2.2V55h-1.3V54c0-0.6-0.3-0.9-0.7-0.9c-0.4,0-0.7,0.2-0.7,0.9v4.7c0,0.6,0.3,0.9,0.7,0.9c0.4,0,0.7-0.2,0.7-0.9
		v-1.6h-0.6V55.9z"/>
	<path class="st0" d="M127.2,52v6.8c0,0.6,0.3,0.9,0.7,0.9c0.4,0,0.7-0.2,0.7-0.9V52h1.3v6.7c0,1.4-0.7,2.2-2.1,2.2
		s-2.1-0.8-2.1-2.2V52H127.2z"/>
	<path class="st0" d="M147.3,55.7h1.9V57h-1.9v2.6h2.4v1.3h-3.8V52h3.8v1.3h-2.4V55.7z"/>
</g>
</svg>
