<?xml version="1.0" encoding="utf-8"?>
<!-- Generator: Adobe Illustrator 22.1.0, SVG Export Plug-In . SVG Version: 6.00 Build 0)  -->
<svg version="1.1" id="Calque_1" xmlns="http://www.w3.org/2000/svg" xmlns:xlink="http://www.w3.org/1999/xlink" x="0px" y="0px"
	 viewBox="0 0 264 264" style="enable-background:new 0 0 264 264;" xml:space="preserve">
<style type="text/css">
	.st0{opacity:0.4;fill:#FFFFFF;}
	.st1{fill:#DB2140;}
	.st2{fill:#230910;}
	.st3{enable-background:new    ;}
	.st4{clip-path:url(#SVGID_2_);enable-background:new    ;}
	.st5{fill:#59101F;}
	.st6{clip-path:url(#SVGID_4_);enable-background:new    ;}
	.st7{clip-path:url(#SVGID_6_);enable-background:new    ;}
	.st8{clip-path:url(#SVGID_8_);enable-background:new    ;}
	.st9{clip-path:url(#SVGID_10_);enable-background:new    ;}
	.st10{clip-path:url(#SVGID_12_);enable-background:new    ;}
	.st11{clip-path:url(#SVGID_14_);enable-background:new    ;}
	.st12{clip-path:url(#SVGID_16_);enable-background:new    ;}
	.st13{clip-path:url(#SVGID_18_);enable-background:new    ;}
	.st14{clip-path:url(#SVGID_20_);enable-background:new    ;}
	.st15{clip-path:url(#SVGID_22_);enable-background:new    ;}
	.st16{fill:#AB1738;}
	.st17{fill:#FCFCFC;}
	.st18{fill:#FFFFFF;}
	.st19{fill:#D9213F;}
</style>
<g>
	<polygon class="st0" points="132,66 134.1,0 134.1,66 138.2,0.1 136.1,66.1 142.4,0.4 138.2,66.3 146.5,0.8 140.3,66.5 150.6,1.3 
		142.3,66.8 154.7,1.9 144.4,67.2 158.8,2.7 146.4,67.6 162.8,3.6 148.4,68.1 166.8,4.7 150.4,68.6 170.8,5.8 152.4,69.2 174.8,7.1 
		154.4,69.9 178.7,8.5 156.3,70.6 182.5,10 158.2,71.4 186.3,11.7 160.1,72.3 190.1,13.4 162,73.2 193.8,15.3 163.8,74.2 
		197.4,17.3 165.6,75.2 201,19.4 167.4,76.3 204.5,21.7 169.1,77.4 207.9,24 170.8,78.6 211.3,26.4 172.5,79.8 214.5,29 174.1,81.1 
		217.7,31.6 175.6,82.5 220.8,34.4 177.2,83.9 223.9,37.2 178.7,85.3 226.8,40.1 180.1,86.8 229.6,43.1 181.5,88.3 232.4,46.3 
		182.9,89.9 235,49.5 184.2,91.5 237.6,52.7 185.4,93.2 240,56.1 186.6,94.9 242.3,59.5 187.7,96.6 244.6,63 188.8,98.4 246.7,66.6 
		189.8,100.2 248.7,70.2 190.8,102 250.5,73.9 191.7,103.9 252.3,77.7 192.6,105.8 254,81.5 193.4,107.7 255.5,85.3 194.1,109.6 
		256.9,89.2 194.8,111.6 258.2,93.2 195.4,113.6 259.3,97.2 195.9,115.6 260.4,101.2 196.4,117.6 261.3,105.2 196.8,119.6 
		262,109.3 197.2,121.7 262.7,113.4 197.5,123.7 263.2,117.5 197.7,125.8 263.6,121.6 197.9,127.9 263.9,125.8 198,129.9 264,129.9 
		198,132 264,134.1 198,134.1 263.9,138.2 197.9,136.1 263.6,142.4 197.7,138.2 263.2,146.5 197.5,140.3 262.7,150.6 197.2,142.3 
		262,154.7 196.8,144.4 261.3,158.8 196.4,146.4 260.4,162.8 195.9,148.4 259.3,166.8 195.4,150.4 258.2,170.8 194.8,152.4 
		256.9,174.8 194.1,154.4 255.5,178.7 193.4,156.3 254,182.5 192.6,158.2 252.3,186.3 191.7,160.1 250.5,190.1 190.8,162 
		248.7,193.8 189.8,163.8 246.7,197.4 188.8,165.6 244.6,201 187.7,167.4 242.3,204.5 186.6,169.1 240,207.9 185.4,170.8 
		237.6,211.3 184.2,172.5 235,214.5 182.9,174.1 232.4,217.7 181.5,175.6 229.6,220.8 180.1,177.2 226.8,223.9 178.7,178.7 
		223.9,226.8 177.2,180.1 220.8,229.6 175.6,181.5 217.7,232.4 174.1,182.9 214.5,235 172.5,184.2 211.3,237.6 170.8,185.4 
		207.9,240 169.1,186.6 204.5,242.3 167.4,187.7 201,244.6 165.6,188.8 197.4,246.7 163.8,189.8 193.8,248.7 162,190.8 190.1,250.5 
		160.1,191.7 186.3,252.3 158.2,192.6 182.5,254 156.3,193.4 178.7,255.5 154.4,194.1 174.8,256.9 152.4,194.8 170.8,258.2 
		150.4,195.4 166.8,259.3 148.4,195.9 162.8,260.4 146.4,196.4 158.8,261.3 144.4,196.8 154.7,262 142.3,197.2 150.6,262.7 
		140.3,197.5 146.5,263.2 138.2,197.7 142.4,263.6 136.1,197.9 138.2,263.9 134.1,198 134.1,264 132,198 129.9,264 129.9,198 
		125.8,263.9 127.9,197.9 121.6,263.6 125.8,197.7 117.5,263.2 123.7,197.5 113.4,262.7 121.7,197.2 109.3,262 119.6,196.8 
		105.2,261.3 117.6,196.4 101.2,260.4 115.6,195.9 97.2,259.3 113.6,195.4 93.2,258.2 111.6,194.8 89.2,256.9 109.6,194.1 
		85.3,255.5 107.7,193.4 81.5,254 105.8,192.6 77.7,252.3 103.9,191.7 73.9,250.5 102,190.8 70.2,248.7 100.2,189.8 66.6,246.7 
		98.4,188.8 63,244.6 96.6,187.7 59.5,242.3 94.9,186.6 56.1,240 93.2,185.4 52.7,237.6 91.5,184.2 49.5,235 89.9,182.9 46.3,232.4 
		88.3,181.5 43.1,229.6 86.8,180.1 40.1,226.8 85.3,178.7 37.2,223.9 83.9,177.2 34.4,220.8 82.5,175.6 31.6,217.7 81.1,174.1 
		29,214.5 79.8,172.5 26.4,211.3 78.6,170.8 24,207.9 77.4,169.1 21.7,204.5 76.3,167.4 19.4,201 75.2,165.6 17.3,197.4 74.2,163.8 
		15.3,193.8 73.2,162 13.4,190.1 72.3,160.1 11.7,186.3 71.4,158.2 10,182.5 70.6,156.3 8.5,178.7 69.9,154.4 7.1,174.8 69.2,152.4 
		5.8,170.8 68.6,150.4 4.7,166.8 68.1,148.4 3.6,162.8 67.6,146.4 2.7,158.8 67.2,144.4 1.9,154.7 66.8,142.3 1.3,150.6 66.5,140.3 
		0.8,146.5 66.3,138.2 0.4,142.4 66.1,136.1 0.1,138.2 66,134.1 0,134.1 66,132 0,129.9 66,129.9 0.1,125.8 66.1,127.9 0.4,121.6 
		66.3,125.8 0.8,117.5 66.5,123.7 1.3,113.4 66.8,121.7 1.9,109.3 67.2,119.6 2.7,105.2 67.6,117.6 3.6,101.2 68.1,115.6 4.7,97.2 
		68.6,113.6 5.8,93.2 69.2,111.6 7.1,89.2 69.9,109.6 8.5,85.3 70.6,107.7 10,81.5 71.4,105.8 11.7,77.7 72.3,103.9 13.4,73.9 
		73.2,102 15.3,70.2 74.2,100.2 17.3,66.6 75.2,98.4 19.4,63 76.3,96.6 21.7,59.5 77.4,94.9 24,56.1 78.6,93.2 26.4,52.7 79.8,91.5 
		29,49.5 81.1,89.9 31.6,46.3 82.5,88.3 34.4,43.1 83.9,86.8 37.2,40.1 85.3,85.3 40.1,37.2 86.8,83.9 43.1,34.4 88.3,82.5 
		46.3,31.6 89.9,81.1 49.5,29 91.5,79.8 52.7,26.4 93.2,78.6 56.1,24 94.9,77.4 59.5,21.7 96.6,76.3 63,19.4 98.4,75.2 66.6,17.3 
		100.2,74.2 70.2,15.3 102,73.2 73.9,13.4 103.9,72.3 77.7,11.7 105.8,71.4 81.5,10 107.7,70.6 85.3,8.5 109.6,69.9 89.2,7.1 
		111.6,69.2 93.2,5.8 113.6,68.6 97.2,4.7 115.6,68.1 101.2,3.6 117.6,67.6 105.2,2.7 119.6,67.2 109.3,1.9 121.7,66.8 113.4,1.3 
		123.7,66.5 117.5,0.8 125.8,66.3 121.6,0.4 127.9,66.1 125.8,0.1 129.9,66 129.9,0 	"/>
	<g>
		<path class="st1" d="M241.6,175.5c-1-2.4-2.1-4.6-3.5-6.7l-6.6-15.8l-7-16.7l-3.2-2.7c-3.8-3.2-7.9-5.9-12.2-7.8
			c-2.5-1.2-5.1-2-7.8-2.6c3.8-16.5,3.7-36.7-5-60.5l-4.4-12l-12.1-4.6c-2.6-1-25.6-9.5-50.1-9.5c-0.7,0-1.3,0-2,0
			c-3.8,0.1-7.4,0.3-10.9,0.8c-0.4,0.1-0.7,0.1-1.1,0.2c-0.4,0-0.8,0.1-1.1,0.2c-28.7,4-50.8,23-53.2,25.2l-7.1,6.3l-11,12.1
			L46.7,94c2.4,9.6,5.9,18.8,10.4,27.5c-7.6,1.5-14.5,5.9-20.6,13.1c-6.5,7.5-11.3,16.9-14.2,28l-0.5,2c-3.3,12.4-2.8,23.2,1.6,32
			l0.2,0.3c4.3,8.3,11.4,13.7,20.5,15.6l59.4,14.8l16.8-11.5h30.2l16.1,11l57.2-14.3c1-0.2,2-0.5,3-0.7l0.1,0l-0.1-1.2l0.3,1.1
			c5.3-1.7,9.7-4.7,12.8-8.8l0.1-0.1C243,198.5,247.4,189.3,241.6,175.5z"/>
		<path class="st2" d="M191.8,64.4l-3.6-9.8l-9.9-3.8c-2.6-1-26-9.6-50.2-9.1c-3.6,0.1-7,0.3-10.3,0.8c-0.4,0.1-0.7,0.1-1.1,0.2
			c-0.4,0-0.8,0.1-1.1,0.2c-27.3,3.8-48.3,21.9-50.6,24l-6.9,6.1l-9,9.9l2.5,10c7.4,29.3,25,54.4,51.1,72.7
			c19,13.3,35.8,18.4,37.7,18.9l8.5,2.4l6.4-4.5c0.5-0.3,3-2.2,6.5-5.5c1.4-1.3,2.9-2.8,4.5-4.6l9-9.9c0,0-0.1,0.1-0.1,0.1
			C189,147.2,209.9,114.1,191.8,64.4z M171.7,166c0.1-0.1,0.1-0.1,0.2-0.2C171.8,165.9,171.7,165.9,171.7,166z M174,163.6
			C174,163.6,174,163.6,174,163.6C174,163.6,174,163.6,174,163.6z M172.8,164.9c0.1-0.1,0.1-0.1,0.2-0.2
			C172.9,164.7,172.9,164.8,172.8,164.9z"/>
		<g class="st3">
			<defs>
				<path id="SVGID_1_" class="st3" d="M167.6,84.8c-3-1.1-22.8-8-42.3-7.6c0.3-0.3,0.7-0.8,1.1-1.2c0.3-0.4,0.8-0.9,1.1-1.2
					c0.3-0.4,0.8-0.9,1.2-1.3c0.4-0.4,0.8-0.9,1.2-1.3c0.4-0.4,0.8-0.9,1.2-1.3c0.3-0.4,0.8-0.9,1.2-1.3c0.3-0.4,0.8-0.9,1.1-1.2
					c0.3-0.3,0.7-0.8,1.1-1.2c19.5-0.4,39.4,6.6,42.3,7.6C173.9,77.8,170.3,81.8,167.6,84.8z"/>
			</defs>
			<clipPath id="SVGID_2_">
				<use xlink:href="#SVGID_1_"  style="overflow:visible;"/>
			</clipPath>
			<g class="st4">
				<path class="st5" d="M176.6,74.8l-9,9.9c-3-1.1-22.8-8-42.3-7.6c-0.5,0-0.9,0-1.4,0c-1,0-2,0.1-3,0.2c-0.1,0-0.2,0-0.3,0
					c-1.1,0.1-2.1,0.2-3.2,0.3c-0.1,0-0.3,0-0.4,0.1l9-9.9c0.1,0,0.3,0,0.4-0.1c1-0.1,2.1-0.3,3.2-0.3c0.1,0,0.2,0,0.3,0
					c1-0.1,2-0.1,3-0.2c0.5,0,0.9,0,1.4,0C153.8,66.8,173.6,73.7,176.6,74.8"/>
			</g>
		</g>
		<g class="st3">
			<defs>
				<path id="SVGID_3_" class="st3" d="M125.2,77.1c-0.5,0-0.9,0-1.4,0c3-3.3,6-6.6,9-9.9c0.5,0,0.9,0,1.4,0
					C131.3,70.5,128.3,73.8,125.2,77.1z"/>
			</defs>
			<clipPath id="SVGID_4_">
				<use xlink:href="#SVGID_3_"  style="overflow:visible;"/>
			</clipPath>
			<g class="st6">
				<path class="st5" d="M176.6,74.8l-9,9.9c-3-1.1-22.8-8-42.3-7.6c-0.5,0-0.9,0-1.4,0c-1,0-2,0.1-3,0.2c-0.1,0-0.2,0-0.3,0
					c-1.1,0.1-2.1,0.2-3.2,0.3c-0.1,0-0.3,0-0.4,0.1l9-9.9c0.1,0,0.3,0,0.4-0.1c1-0.1,2.1-0.3,3.2-0.3c0.1,0,0.2,0,0.3,0
					c1-0.1,2-0.1,3-0.2c0.5,0,0.9,0,1.4,0C153.8,66.8,173.6,73.7,176.6,74.8"/>
			</g>
		</g>
		<g class="st3">
			<defs>
				<path id="SVGID_5_" class="st3" d="M120.9,77.3c-0.1,0-0.2,0-0.3,0c0.3-0.3,0.7-0.8,1.1-1.2c0.3-0.4,0.8-0.9,1.1-1.2
					c0.3-0.4,0.8-0.9,1.2-1.3c0.4-0.4,0.8-0.9,1.2-1.3c0.4-0.4,0.8-0.9,1.2-1.3c0.3-0.4,0.8-0.9,1.2-1.3c0.3-0.4,0.8-0.9,1.1-1.2
					c0.3-0.3,0.7-0.8,1.1-1.2c0.1,0,0.2,0,0.3,0c1-0.1,2-0.1,3-0.2c-3,3.3-6,6.6-9,9.9C122.9,77.2,121.9,77.2,120.9,77.3z"/>
			</defs>
			<clipPath id="SVGID_6_">
				<use xlink:href="#SVGID_5_"  style="overflow:visible;"/>
			</clipPath>
			<g class="st7">
				<path class="st5" d="M176.6,74.8l-9,9.9c-3-1.1-22.8-8-42.3-7.6c-0.5,0-0.9,0-1.4,0c-1,0-2,0.1-3,0.2c-0.1,0-0.2,0-0.3,0
					c-1.1,0.1-2.1,0.2-3.2,0.3c-0.1,0-0.3,0-0.4,0.1l9-9.9c0.1,0,0.3,0,0.4-0.1c1-0.1,2.1-0.3,3.2-0.3c0.1,0,0.2,0,0.3,0
					c1-0.1,2-0.1,3-0.2c0.5,0,0.9,0,1.4,0C153.8,66.8,173.6,73.7,176.6,74.8"/>
			</g>
		</g>
		<g class="st3">
			<defs>
				<path id="SVGID_7_" class="st3" d="M120.6,77.3c-0.1,0-0.3,0-0.4,0c3-3.3,6-6.6,9-9.9c0.1,0,0.3,0,0.4,0c-1.5,1.7-3,3.3-4.5,5
					c-0.4,0.4-0.8,0.9-1.2,1.3c-0.3,0.4-0.8,0.9-1.2,1.3c-0.3,0.4-0.8,0.9-1.1,1.2C121.4,76.5,121.1,77.1,120.6,77.3z"/>
			</defs>
			<clipPath id="SVGID_8_">
				<use xlink:href="#SVGID_7_"  style="overflow:visible;"/>
			</clipPath>
			<g class="st8">
				<path class="st5" d="M176.6,74.8l-9,9.9c-3-1.1-22.8-8-42.3-7.6c-0.5,0-0.9,0-1.4,0c-1,0-2,0.1-3,0.2c-0.1,0-0.2,0-0.3,0
					c-1.1,0.1-2.1,0.2-3.2,0.3c-0.1,0-0.3,0-0.4,0.1l9-9.9c0.1,0,0.3,0,0.4-0.1c1-0.1,2.1-0.3,3.2-0.3c0.1,0,0.2,0,0.3,0
					c1-0.1,2-0.1,3-0.2c0.5,0,0.9,0,1.4,0C153.8,66.8,173.6,73.7,176.6,74.8"/>
			</g>
		</g>
		<g class="st3">
			<defs>
				<path id="SVGID_9_" class="st3" d="M120.2,77.4c-0.9,0.1-1.9,0.2-2.8,0.3c0.3-0.3,0.7-0.8,1.1-1.2c0.3-0.4,0.8-0.9,1.1-1.2
					c0.3-0.4,0.8-0.9,1.2-1.3c0.4-0.4,0.8-0.9,1.2-1.3c0.4-0.4,0.8-0.9,1.2-1.3c0.3-0.4,0.8-0.9,1.2-1.3c0.3-0.4,0.8-0.9,1.1-1.2
					c0.3-0.3,0.7-0.8,1.1-1.2c0.9-0.1,1.8-0.2,2.8-0.3c-1.5,1.7-3,3.3-4.5,5c-0.4,0.4-0.8,0.9-1.2,1.3c-0.2,0.2-0.4,0.5-0.6,0.6
					c-0.2,0.2-0.4,0.4-0.6,0.6c-0.3,0.4-0.8,0.9-1.1,1.2C121,76.6,120.7,77.2,120.2,77.4z"/>
			</defs>
			<clipPath id="SVGID_10_">
				<use xlink:href="#SVGID_9_"  style="overflow:visible;"/>
			</clipPath>
			<g class="st9">
				<path class="st5" d="M176.6,74.8l-9,9.9c-3-1.1-22.8-8-42.3-7.6c-0.5,0-0.9,0-1.4,0c-1,0-2,0.1-3,0.2c-0.1,0-0.2,0-0.3,0
					c-1.1,0.1-2.1,0.2-3.2,0.3c-0.1,0-0.3,0-0.4,0.1l9-9.9c0.1,0,0.3,0,0.4-0.1c1-0.1,2.1-0.3,3.2-0.3c0.1,0,0.2,0,0.3,0
					c1-0.1,2-0.1,3-0.2c0.5,0,0.9,0,1.4,0C153.8,66.8,173.6,73.7,176.6,74.8"/>
			</g>
		</g>
		<g class="st3">
			<defs>
				<path id="SVGID_11_" class="st3" d="M117.5,77.7c-0.1,0-0.3,0-0.4,0.1l9-9.9c0.1,0,0.3,0,0.4-0.1c-1.5,1.7-3,3.3-4.5,5
					c-0.4,0.4-0.8,0.9-1.2,1.3c-0.2,0.2-0.4,0.5-0.6,0.6c-0.7,0.8-1.5,1.6-2.2,2.5C117.8,77.3,117.7,77.6,117.5,77.7z"/>
			</defs>
			<clipPath id="SVGID_12_">
				<use xlink:href="#SVGID_11_"  style="overflow:visible;"/>
			</clipPath>
			<g class="st10">
				<path class="st5" d="M176.6,74.8l-9,9.9c-3-1.1-22.8-8-42.3-7.6c-0.5,0-0.9,0-1.4,0c-1,0-2,0.1-3,0.2c-0.1,0-0.2,0-0.3,0
					c-1.1,0.1-2.1,0.2-3.2,0.3c-0.1,0-0.3,0-0.4,0.1l9-9.9c0.1,0,0.3,0,0.4-0.1c1-0.1,2.1-0.3,3.2-0.3c0.1,0,0.2,0,0.3,0
					c1-0.1,2-0.1,3-0.2c0.5,0,0.9,0,1.4,0C153.8,66.8,173.6,73.7,176.6,74.8"/>
			</g>
		</g>
		<g class="st3">
			<defs>
				<path id="SVGID_13_" class="st3" d="M117,77.7c3-3.3,6-6.6,9-9.9c0,0,0,0,0.1,0L117,77.7C117.1,77.7,117,77.7,117,77.7z"/>
			</defs>
			<clipPath id="SVGID_14_">
				<use xlink:href="#SVGID_13_"  style="overflow:visible;"/>
			</clipPath>
			<g class="st11">
				<path class="st5" d="M126.1,67.8l-9,9.9c-0.2,0-0.3,0-0.5,0.1c-0.2,0-0.4,0.1-0.6,0.1l9-9.9c0.2,0,0.4-0.1,0.6-0.1
					C125.8,67.8,125.9,67.8,126.1,67.8"/>
			</g>
		</g>
		<g class="st3">
			<defs>
				<path id="SVGID_15_" class="st3" d="M117,77.7c-0.2,0-0.3,0-0.4,0.1c0.3-0.3,0.7-0.8,1.1-1.2c0.3-0.4,0.8-0.9,1.1-1.2
					c0.3-0.4,0.8-0.9,1.2-1.3c0.4-0.4,0.8-0.9,1.2-1.3c0.4-0.4,0.8-0.9,1.2-1.3c0.3-0.4,0.8-0.9,1.2-1.3c0.3-0.4,0.8-0.9,1.1-1.2
					c0.3-0.3,0.7-0.8,1.1-1.2c0.1,0,0.2,0,0.4-0.1c-2.7,3-5.5,6-8.2,9c-0.1,0.2-0.3,0.3-0.4,0.5c0,0,0,0-0.1,0.1
					c-0.1,0.1-0.1,0.2-0.2,0.2C117.1,77.6,117.1,77.7,117,77.7C117.1,77.7,117,77.7,117,77.7z"/>
			</defs>
			<clipPath id="SVGID_16_">
				<use xlink:href="#SVGID_15_"  style="overflow:visible;"/>
			</clipPath>
			<g class="st12">
				<path class="st5" d="M126.1,67.8l-9,9.9c-0.2,0-0.3,0-0.5,0.1c-0.2,0-0.4,0.1-0.6,0.1l9-9.9c0.2,0,0.4-0.1,0.6-0.1
					C125.8,67.8,125.9,67.8,126.1,67.8"/>
			</g>
		</g>
		<g class="st3">
			<defs>
				<path id="SVGID_17_" class="st3" d="M116.6,77.8c-0.2,0-0.4,0.1-0.6,0.1l9-9.9c0.2,0,0.4-0.1,0.6-0.1c-1.5,1.7-3,3.3-4.5,5
					c-0.6,0.6-1.2,1.3-1.8,1.9c-0.2,0.2-0.4,0.4-0.6,0.6c-0.3,0.4-0.8,0.9-1.1,1.2C117.4,77,117,77.6,116.6,77.8z"/>
			</defs>
			<clipPath id="SVGID_18_">
				<use xlink:href="#SVGID_17_"  style="overflow:visible;"/>
			</clipPath>
			<g class="st13">
				<path class="st5" d="M126.1,67.8l-9,9.9c-0.2,0-0.3,0-0.5,0.1c-0.2,0-0.4,0.1-0.6,0.1l9-9.9c0.2,0,0.4-0.1,0.6-0.1
					C125.8,67.8,125.9,67.8,126.1,67.8"/>
			</g>
		</g>
		<g class="st3">
			<defs>
				<path id="SVGID_19_" class="st3" d="M116,77.9c-0.2,0-0.4,0-0.6,0.1c0.3-0.3,0.7-0.8,1.1-1.2c0.3-0.4,0.8-0.9,1.1-1.2
					c0.3-0.4,0.8-0.9,1.2-1.3c0.4-0.4,0.8-0.9,1.2-1.3c0.4-0.4,0.8-0.9,1.2-1.3c0.3-0.4,0.8-0.9,1.2-1.3c0.3-0.4,0.8-0.9,1.1-1.2
					c0.3-0.3,0.7-0.8,1.1-1.2c0.2,0,0.4,0,0.6-0.1C122.3,70.9,119.6,76,116,77.9z"/>
			</defs>
			<clipPath id="SVGID_20_">
				<use xlink:href="#SVGID_19_"  style="overflow:visible;"/>
			</clipPath>
			<g class="st14">
				<path class="st5" d="M125,68l-9,9.9c-0.2,0-0.4,0-0.6,0.1c-0.2,0-0.4,0-0.5,0.1c-23.4,3.3-41.5,19.4-42.4,20.3l9-9.9
					c1-0.8,19-16.9,42.4-20.3c0.2,0,0.4,0,0.5-0.1C124.6,68,124.8,68,125,68"/>
			</g>
		</g>
		<g class="st3">
			<defs>
				<path id="SVGID_21_" class="st3" d="M114.9,78C114.9,78,114.9,78,114.9,78c3-3.3,6-6.6,9-9.9c0,0,0,0,0,0c0.2,0,0.4,0,0.5-0.1
					c-3,3.3-6,6.6-9,9.9C115.2,78,115,78,114.9,78z"/>
			</defs>
			<clipPath id="SVGID_22_">
				<use xlink:href="#SVGID_21_"  style="overflow:visible;"/>
			</clipPath>
			<g class="st15">
				<path class="st5" d="M125,68l-9,9.9c-0.2,0-0.4,0-0.6,0.1c-0.2,0-0.4,0-0.5,0.1c-23.4,3.3-41.5,19.4-42.4,20.3l9-9.9
					c1-0.8,19-16.9,42.4-20.3c0.2,0,0.4,0,0.5-0.1C124.6,68,124.8,68,125,68"/>
			</g>
		</g>
		<g>
			<path class="st16" d="M123.6,61c2.7-0.4,5.4-0.6,8.1-0.6c21.1-0.4,41.6,7.4,42.7,7.8c0.8,2.3,1.5,4.5,2.2,6.7
				c-3-1.1-22.8-8-42.3-7.6c-0.5,0-0.9,0-1.4,0c-1,0-2,0.1-3,0.2c-0.1,0-0.2,0-0.3,0c-1.1,0.1-2.1,0.2-3.2,0.3c-0.1,0-0.3,0-0.4,0.1
				c-0.2,0-0.3,0-0.5,0.1c-0.2,0-0.4,0.1-0.6,0.1c-0.2,0-0.4,0-0.6,0.1c-0.2,0-0.4,0-0.5,0.1c-23.4,3.3-41.5,19.4-42.4,20.3
				c0.4,1.6,0.9,3.2,1.3,4.8c0.3,0.9,0.6,1.9,0.9,2.8c-1.9-4.5-3.5-9.3-4.8-14.4c1-0.8,19.1-17,42.4-20.3c0.4-0.1,0.8-0.1,1.1-0.1
				C122.9,61.1,123.3,61,123.6,61z"/>
		</g>
		<g>
			<path class="st1" d="M123.8,68.1c0.3,0,0.5-0.1,0.6-0.1c0.2,0,0.4,0,0.6-0.1c0.2,0,0.4-0.1,0.6-0.1c0.1,0,0.2,0,0.4-0.1
				c0.2,0,0.3,0,0.5-0.1c1-0.1,2.1-0.3,3.2-0.3c1.2-0.1,2.2-0.2,3.2-0.2c0.5,0,0.9,0,1.4,0c19.5-0.4,39.4,6.6,42.3,7.6
				c12.1,41.8-9.6,68.4-19.8,78.1c-2.9,2.8-4.8,4.1-4.9,4.2c-2.4-0.7-48.5-13.9-68.2-61.1c-0.3-0.9-0.6-1.9-0.9-2.8
				c-0.5-1.6-0.9-3.2-1.3-4.8C82.4,87.5,100.5,71.4,123.8,68.1z"/>
		</g>
		<g>
			<g>
				<path class="st17" d="M79.5,61.4c0.9-0.1,1.9,0.4,2.7,1.4c0.1,0.1,0.2,0.2,0.2,0.3c-0.4,0.3-0.9,0.6-1.3,0.9
					c-0.1-0.1-0.2-0.3-0.3-0.4c-0.4-0.5-0.7-0.6-1-0.6c-0.1,0-0.3,0.1-0.4,0.2c-0.4,0.3-0.5,0.7,0.1,1.4c1.5,1.9,4.4,0.4,6.5,3
					c1.2,1.5,1.1,2.8-0.1,3.6c-0.4,0.3-0.7,0.4-1.1,0.5c-0.9,0.1-1.8-0.4-2.7-1.4c-0.1-0.2-0.3-0.4-0.5-0.6c0.4-0.3,0.8-0.6,1.2-0.9
					c0.2,0.2,0.4,0.4,0.5,0.7c0.4,0.5,0.7,0.6,1,0.6c0.1,0,0.3-0.1,0.4-0.2c0.4-0.3,0.5-0.7,0-1.4c-1.5-1.9-4.4-0.4-6.5-3
					c-1.2-1.4-1.2-2.7,0.1-3.7C78.8,61.6,79.2,61.5,79.5,61.4z"/>
			</g>
			<g>
				<path class="st17" d="M91.1,54.6c1.8,3.4,3.6,6.8,5.3,10.2c-0.6,0.3-1.3,0.7-1.9,1c-1.3-1.6-2.6-3.2-4-4.9c1,1.8,2,3.6,2.9,5.4
					c-0.6,0.3-1.3,0.7-1.9,1.1c-2.5-3-5.1-6-7.7-9c0.5-0.3,0.9-0.5,1.4-0.8c2,2.4,4,4.7,6,7.1c-1.5-2.7-3-5.3-4.5-7.9
					c0.5-0.3,1-0.5,1.4-0.8c2,2.4,4,4.8,5.9,7.3c-1.4-2.7-2.9-5.4-4.4-8.1C90.2,55.1,90.7,54.9,91.1,54.6z"/>
			</g>
			<g>
				<path class="st17" d="M96.7,52.2c1.9,3.3,3.8,6.7,5.6,10.1c-0.5,0.2-1,0.4-1.5,0.6c-1.9-3.3-3.8-6.7-5.7-10
					C95.7,52.7,96.2,52.5,96.7,52.2z"/>
			</g>
			<g>
				<path class="st17" d="M113,47.4c1.6-0.2,2.7,0.6,3.3,2.2c0,0.1,0.1,0.2,0.1,0.3c-0.5,0.1-1.1,0.2-1.6,0.3
					c-0.1-0.1-0.1-0.3-0.2-0.4c-0.3-0.7-0.6-1-1.2-0.9c0,0,0,0-0.1,0c-0.6,0.1-0.8,0.5-0.5,1.2c0.8,2.2,4.3,2,5.3,5
					c0.6,1.7,0.1,2.8-1.6,3.1c-0.1,0-0.1,0-0.2,0c-1.5,0.2-2.7-0.6-3.3-2.2c-0.1-0.2-0.2-0.4-0.2-0.7c0.5-0.1,1.1-0.2,1.6-0.3
					c0.1,0.3,0.2,0.5,0.3,0.8c0.3,0.7,0.7,0.9,1.2,0.9c0,0,0,0,0.1,0c0.5-0.1,0.8-0.4,0.5-1.2c-0.8-2.2-4.2-2-5.3-5
					c-0.6-1.7-0.1-2.8,1.6-3.2C112.9,47.5,112.9,47.5,113,47.4z"/>
			</g>
			<g>
				<path class="st17" d="M103.9,49.7c1.4-0.2,2.4,0.5,3.1,2c0.1,0.1,0.1,0.2,0.2,0.3c-0.5,0.2-1,0.3-1.6,0.5
					c-0.1-0.1-0.1-0.3-0.2-0.4c-0.3-0.6-0.7-0.9-1.1-0.8c-0.1,0-0.1,0-0.2,0c-0.5,0.2-0.7,0.5-0.3,1.3c1,2.1,4.4,1.6,5.7,4.5
					c0.8,1.7,0.4,2.8-1.2,3.3c-0.2,0.1-0.4,0.1-0.5,0.1c-1.3,0.2-2.4-0.5-3.1-2c-0.1-0.2-0.2-0.4-0.3-0.6c0.5-0.2,1-0.3,1.5-0.5
					c0.1,0.2,0.2,0.5,0.3,0.7c0.3,0.6,0.7,0.9,1.1,0.8c0.1,0,0.1,0,0.2,0c0.5-0.2,0.7-0.5,0.4-1.3c-1-2.1-4.3-1.6-5.8-4.5
					c-0.8-1.6-0.4-2.9,1.2-3.3C103.6,49.7,103.8,49.7,103.9,49.7z"/>
			</g>
			<g>
				<path class="st17" d="M160.2,49.2c1.6,0.4,3.3,0.9,4.9,1.3c-0.1,0.5-0.1,1-0.2,1.5c-1-0.3-2.1-0.6-3.1-0.8
					c-0.1,1-0.3,1.9-0.4,2.9c0.8,0.2,1.6,0.4,2.4,0.7c-0.1,0.5-0.1,1-0.2,1.5c-0.8-0.2-1.6-0.4-2.4-0.7c-0.1,1-0.3,2-0.4,3
					c1,0.3,2,0.5,3,0.8c-0.1,0.5-0.1,1-0.2,1.5c-1.6-0.4-3.1-0.9-4.7-1.3C159.3,56.1,159.7,52.7,160.2,49.2z"/>
			</g>
			<g class="st3">
				<g>
					<path class="st17" d="M152.6,47.6c1.8,0.3,2.7,1.4,2.6,3.1c-0.1,1.8-0.2,3.6-0.2,5.3c-0.1,1.3-0.6,2-1.6,2.2
						c-0.3,0-0.7,0-1.1,0c-0.9-0.2-1.8-0.3-2.8-0.5c0.1-3.5,0.1-7.1,0.3-10.6C150.6,47.2,151.6,47.4,152.6,47.6z M153.3,50.3
						c0-0.8-0.3-1.1-0.9-1.2c-0.3-0.1-0.7-0.1-1-0.2c-0.1,2.5-0.2,5-0.2,7.6c0.3,0.1,0.7,0.1,1,0.2c0.1,0,0.3,0,0.4,0
						c0.3,0,0.5-0.3,0.6-0.9C153.2,54,153.3,52.1,153.3,50.3"/>
				</g>
				<g>
					<path class="st17" d="M140.4,46c0.9,0.1,1.8,0.2,2.7,0.2c0.8,3.6,1.6,7.3,2.4,10.9c-0.6-0.1-1.2-0.1-1.8-0.2
						c-0.1-0.7-0.3-1.3-0.4-2c-0.7-0.1-1.4-0.1-2.2-0.2c-0.1,0.6-0.1,1.3-0.2,1.9c-0.5,0-1.1-0.1-1.6-0.1
						C139.7,53.1,140,49.5,140.4,46z M143,53.5c-0.4-1.8-0.8-3.7-1.2-5.5c-0.2,1.8-0.3,3.6-0.5,5.3C141.9,53.4,142.4,53.5,143,53.5"
						/>
				</g>
				<g>
					<path class="st17" d="M126.2,45.9c0.8,0,1.7-0.1,2.5-0.1c0.9,2.5,1.8,5.1,2.8,7.6c-0.1-2.6-0.1-5.1-0.2-7.7c0.8,0,1.7,0,2.5,0
						c0.6,3.6,1.2,7.2,1.9,10.8c-0.5,0-1.1,0-1.6,0c-0.5-2.6-0.9-5.2-1.4-7.7c0,2.6,0.1,5.2,0.2,7.8c-0.5,0-1.1,0-1.6,0
						c-0.9-2.5-1.9-5.1-2.8-7.6c0.5,2.5,1,5.1,1.5,7.6c-0.5,0-1,0-1.5,0.1C127.6,53,126.9,49.4,126.2,45.9z"/>
				</g>
			</g>
		</g>
		<g>
			<polygon class="st17" points="135.4,77.2 140.9,95.2 158.5,92.7 163.2,108.1 145.7,110.5 151.2,128.5 136.2,130.6 130.6,112.7 
				113.1,115.1 108.4,99.8 125.9,97.3 120.4,79.4 			"/>
		</g>
		<path class="st2" d="M220.5,139.3l-2.2-1.9c-3.4-2.9-7.2-5.3-11.1-7.1c-4.3-2-8.8-3-13.2-3.1h-0.2l-9.4-0.1l-27.7-0.3l-15.9-0.2
			l0,0l-2,0l-9.6-0.1l0,0l-21.6-0.2l0,0l-22.7-0.2l-21.4-0.2l-0.3,0c-8.4,0-16,4-22.8,12c-6,6.9-10.4,15.6-13.2,26l-0.5,2
			c-3,11.2-2.6,20.8,1.2,28.5l0.1,0.2c3.6,7,9.6,11.4,17.2,13l57.2,14.3l16.2-11.1h33.3l15.5,10.6l55.2-13.8c1-0.2,1.9-0.4,2.7-0.7
			l0.2-0.1l0,0c5.2-1.6,8.4-4.5,10.3-7.1l0.1-0.1c3.1-4.2,5.8-11.4,1.2-22.3c-1.3-3.1-2.9-5.8-4.4-8.8L220.5,139.3z M197.8,204
			L197.8,204C197.8,204,197.8,204,197.8,204L197.8,204z"/>
		<path class="st18" d="M77.4,144.9l-0.2-0.4c-1.4-2.6-3.4-4.7-5.8-6.2c-2.3-1.5-5.1-2.3-8.2-2.3c-5.4-0.1-10.5,2.8-15.3,8.5
			c-4.9,5.7-8.7,13.1-11.1,22.1l-0.5,2c-2.3,8.7-2.2,15.9,0.5,21.4c2.9,5.5,7.8,8.3,14.6,8.3c4.7,0,8.8-0.8,12.2-2.3
			c3.3-1.6,5.9-3.3,7.8-5.3l0.3-0.4l0.1-0.5l2.9-22.3l0.2-1.2l-0.9,0L59,166.2l-0.9,0l-0.2,1.2l-1.6,8.2l-0.2,1.1l0.8,0.1l5.5,0.6
			l-1.3,8c-0.6,0.3-1.3,0.6-2.2,0.9c-1.1,0.4-2.6,0.6-4.4,0.5c-3.9,0-6.5-1.6-7.8-4.9c-1.3-3.3-1.3-7.8,0-13.5l0.5-2.1
			c1.3-5.8,3.4-10.5,6-14c2.6-3.5,5.4-5.1,8.7-5.1c1.5,0,2.7,0.3,3.8,0.8c0.9,0.4,1.6,1,2.1,1.7l-0.1,7.4l0,1l0.7,0l6.2,0l0.9,0
			l0.2-1.2l1.5-11.7L77.4,144.9z"/>
		<path class="st18" d="M107.3,173.6l-8.1-36.5l-0.2-0.8l-0.6,0l-5.8-0.1l-0.6,0l-0.2,0.8l-12.5,36.4l-1.8,0.3l-0.8,0.1l-0.1,1
			l-0.6,5.1l-0.1,1.2l0.9,0l11.5,0l0.9,0l0.1-1.2l0.4-5.1l0.1-1l-0.7-0.2l-1.2-0.3l1.2-3.7l9.2,0l0.8,3.7l-1.2,0.3l-0.8,0.2l0,1
			l-0.2,5.1l-0.1,1.2l0.9,0l11.5,0l0.9,0l0-1.2l0-5.1l0-1l-0.8-0.2L107.3,173.6z M96.5,161.2l-4.8,0l3-10.2L96.5,161.2z"/>
		<polygon class="st18" points="156.2,175.3 156,174.3 155.3,174.1 152.4,173.4 148,145 150.4,144.4 151,144.2 150.9,143.2 
			150,138.1 149.8,136.9 149,136.9 138.5,136.8 137.9,136.8 137.9,137.6 133.7,165.8 124.7,137.4 124.4,136.6 123.9,136.6 
			116.4,136.5 113.4,136.5 112.6,136.5 112.6,137.7 112.7,142.8 112.7,143.8 113.4,144 115.8,144.7 116.5,173.3 113.8,174 
			113,174.2 113,175.2 113.1,180.3 113.1,181.5 114,181.5 128,181.5 129,181.5 128.9,180.3 128.5,175.2 128.5,174.2 127.7,174 
			124.9,173.3 124.6,167.6 124.6,167.6 124.6,167.6 123.6,156.2 131.9,180.7 132.2,181.5 132.9,181.5 137.4,181.5 138.1,181.5 
			138.2,180.8 142.2,156.2 143.3,167.7 143.3,167.7 143.3,167.7 144,173.4 141.3,174.1 140.6,174.3 140.7,175.3 141.3,180.4 
			141.4,181.5 142.3,181.5 156.3,181.6 157.2,181.6 157.1,180.4 		"/>
		<polygon class="st18" points="185.6,169 185.3,167.8 184.4,167.8 179.5,167.7 178.7,167.7 178.9,168.8 179.7,172.8 170.9,172.8 
			168.7,163.1 178.5,163.1 179.4,163.1 179.1,161.9 177.4,155.4 177.1,154.2 176.2,154.2 166.8,154.2 164.9,145.9 172.8,146 
			174,149.9 174.3,151 175.1,151 179.7,151.1 180.6,151.1 180.2,149.9 177,138.3 176.7,137.2 175.9,137.2 156.5,137 153.4,136.9 
			152.6,136.9 152.9,138.1 153.8,143.2 153.9,144.2 154.6,144.4 157.2,145.1 162.6,173.5 160,174.2 159.3,174.3 159.5,175.3 
			160.4,180.4 160.6,181.6 161.6,181.6 188.2,181.7 189.2,181.7 188.8,180.5 		"/>
		<path class="st18" d="M227.8,181.3c-2.1-5-5.2-9.1-9.1-12.2c-3.7-3-8.4-5.4-13.9-7.2c-3.6-1.4-6.3-2.6-7.9-3.8
			c-1.4-1-2.3-2.3-2.8-3.8c-0.6-1.7-0.5-3.1,0.1-4.2c0.7-1.1,2-1.7,4-1.7c1.4,0,2.9,0.2,4.3,0.7c1.2,0.4,2.2,0.8,3,1.3l3.8,7.3
			l0.5,1l0.7,0l6.3,0l0.9,0l-0.5-1.2l-4.8-11.6l-0.2-0.5l-0.4-0.4c-2.7-2.3-5.7-4.2-8.8-5.6c-3-1.4-6.1-2.1-9.2-2.2l0,0l0,0
			c-4.1,0-7.1,1.6-9,4.6c-2,3.1-2.3,7.3-0.8,12.3c1.5,5,4.1,9.1,7.8,12c3.6,2.8,8.4,5.2,14.4,7.2c3.3,1.1,5.8,2.3,7.3,3.5
			c1.4,1.1,2.5,2.5,3.2,4.4c0.7,1.8,0.7,3.1,0,4.2c-0.7,1.1-2.3,1.7-4.6,1.7c-1.9,0-3.7-0.3-5.4-0.9c-1.5-0.5-2.8-1.1-3.8-1.9
			l-3.4-7.6l-0.4-1l-0.8,0l-6.9,0l-0.9,0l0.3,1.2l3.5,11.9l0.1,0.5l0.4,0.3c2.9,2.6,6.2,4.7,9.8,6.2c3.7,1.5,7.5,2.2,11.5,2.2
			c5.6,0,9.5-1.5,11.8-4.4C230,190.8,230,186.6,227.8,181.3z"/>
		<g>
			<path class="st18" d="M81.3,188h1.4v7.5H85v1.3h-3.7V188z"/>
			<path class="st18" d="M102,191.7h1.9v1.3H102v2.6h2.4v1.3h-3.8V188h3.8v1.3H102V191.7z"/>
			<path class="st18" d="M124.8,196.8h-1.4l-0.2-1.6h-1.7l-0.2,1.6H120l1.4-8.8h2L124.8,196.8z M121.6,194h1.3l-0.7-4.4L121.6,194z"
				/>
			<path class="st18" d="M142.5,191.9h1.9v2.8c0,1.4-0.7,2.2-2.1,2.2s-2.1-0.8-2.1-2.2v-4.6c0-1.4,0.7-2.2,2.1-2.2s2.1,0.8,2.1,2.2
				v0.9h-1.3V190c0-0.6-0.3-0.9-0.7-0.9c-0.4,0-0.7,0.2-0.7,0.9v4.7c0,0.6,0.3,0.9,0.7,0.9c0.4,0,0.7-0.2,0.7-0.9v-1.6h-0.6V191.9z"
				/>
			<path class="st18" d="M161.8,188v6.8c0,0.6,0.3,0.9,0.7,0.9s0.7-0.2,0.7-0.9V188h1.3v6.7c0,1.4-0.7,2.2-2.1,2.2s-2.1-0.8-2.1-2.2
				V188H161.8z"/>
			<path class="st18" d="M181.9,191.7h1.9v1.3h-1.9v2.6h2.4v1.3h-3.8V188h3.8v1.3h-2.4V191.7z"/>
		</g>
		<g>
			<g>
				<g>
					<path class="st19" d="M129.3,81.8c0.4-0.1,0.9,0.1,1.2,0.5l4.8,5.6c0.6,0.7,0.3,1.7-0.5,1.8l-5.9,0.8c-0.8,0.1-1.6-0.7-1.5-1.5
						l1.1-6.4C128.6,82.1,128.9,81.9,129.3,81.8z"/>
				</g>
			</g>
		</g>
		<g>
			<g>
				<g>
					<path class="st19" d="M147.5,97.8c0.1,0,0.3,0,0.5,0l7.3,2.3c0.8,0.3,1.2,1.3,0.5,1.8l-5.3,4.1c-0.1,0.1-0.3,0.1-0.4,0.2
						c-0.5,0.1-1.1-0.3-1.3-0.9l-2-6.5C146.7,98.4,147,97.9,147.5,97.8z"/>
				</g>
			</g>
		</g>
		<g>
			<g>
				<g>
					<path class="st19" d="M143.4,116.7c0.6-0.1,1.3,0.6,1.2,1.2l-1.2,7.3c-0.1,0.4-0.3,0.6-0.6,0.6c-0.3,0-0.7-0.1-0.9-0.4
						l-5.4-6.3c-0.5-0.6-0.3-1.3,0.4-1.4L143.4,116.7z"/>
				</g>
			</g>
		</g>
		<g>
			<g>
				<g>
					<path class="st19" d="M121.7,101.4c0.4-0.1,0.9,0.2,1.1,0.7l2.1,7c0.2,0.5-0.1,0.9-0.6,1c-0.1,0-0.3,0-0.4,0l-7.9-2.5
						c-0.7-0.2-1-1.1-0.5-1.5l5.7-4.4C121.5,101.5,121.6,101.4,121.7,101.4z"/>
				</g>
			</g>
		</g>
	</g>
</g>
</svg>
