<?xml version="1.0" encoding="utf-8"?>
<!-- Generator: Adobe Illustrator 22.1.0, SVG Export Plug-In . SVG Version: 6.00 Build 0)  -->
<svg version="1.1" id="Calque_1" xmlns="http://www.w3.org/2000/svg" xmlns:xlink="http://www.w3.org/1999/xlink" x="0px" y="0px"
	 viewBox="0 0 456.9 391" style="enable-background:new 0 0 456.9 391;" xml:space="preserve">
<style type="text/css">
	.st0{fill:#DB2240;}
	.st1{fill:#26050E;}
	.st2{enable-background:new    ;}
	.st3{clip-path:url(#SVGID_2_);enable-background:new    ;}
	.st4{fill:#5A0C1D;}
	.st5{clip-path:url(#SVGID_4_);enable-background:new    ;}
	.st6{clip-path:url(#SVGID_6_);enable-background:new    ;}
	.st7{clip-path:url(#SVGID_8_);enable-background:new    ;}
	.st8{clip-path:url(#SVGID_10_);enable-background:new    ;}
	.st9{clip-path:url(#SVGID_12_);enable-background:new    ;}
	.st10{clip-path:url(#SVGID_14_);enable-background:new    ;}
	.st11{clip-path:url(#SVGID_16_);enable-background:new    ;}
	.st12{clip-path:url(#SVGID_18_);enable-background:new    ;}
	.st13{clip-path:url(#SVGID_20_);enable-background:new    ;}
	.st14{clip-path:url(#SVGID_22_);enable-background:new    ;}
	.st15{fill:#AB1737;}
	.st16{fill:#FCFCFC;}
	.st17{fill:#FFFFFF;}
	.st18{fill:#D9223F;}
</style>
<path class="st0" d="M447.3,283.7c-2-4.7-4.3-9.2-6.9-13.4l-13.2-31.5l-13.9-33.2l-6.3-5.3c-7.6-6.4-15.8-11.7-24.4-15.6
	c-5.1-2.3-10.2-4.1-15.4-5.2c7.6-32.8,7.4-73.1-9.9-120.5L348.8,35l-24-9.1C319.7,23.9,273.7,7,224.9,7c-1.3,0-2.6,0-3.9,0
	c-7.5,0.1-14.8,0.7-21.7,1.7c-0.7,0.1-1.5,0.2-2.2,0.3c-0.7,0.1-1.5,0.2-2.3,0.3c-57.2,8-101.2,45.9-106,50.1L74.7,72l-22,24.2
	l6.3,25.1c4.8,19.2,11.8,37.5,20.8,54.8c-15.1,3-28.9,11.7-41.1,26.2c-12.9,14.8-22.4,33.6-28.4,55.8l-1.1,4
	c-6.6,24.7-5.5,46.2,3.2,63.7l0.3,0.6c8.6,16.5,22.7,27.2,40.8,31.1L171.7,387l33.4-23h60.1l32,22l114-28.5c2-0.4,4-0.9,5.9-1.5
	l0.3-0.1l-0.2-2.3l0.7,2.2c10.5-3.3,19.3-9.4,25.6-17.6l0.2-0.3C450,329.4,458.8,311,447.3,283.7z"/>
<path class="st1" d="M348.1,62.3L341,42.7l-19.8-7.5c-5.2-2-51.8-19.1-100-18.2c-7.1,0.1-14,0.7-20.5,1.6c-0.7,0.1-1.5,0.2-2.2,0.3
	c-0.7,0.1-1.5,0.2-2.3,0.3c-54.4,7.6-96.2,43.6-100.7,47.7L81.8,79.1l-18,19.8l5,19.9c14.7,58.3,49.9,108.4,101.8,144.9
	c37.8,26.6,71.4,36.6,75.1,37.7l16.9,4.8l12.7-9c0.9-0.7,5.9-4.3,12.9-10.9c2.7-2.6,5.7-5.6,8.9-9.1l18-19.8
	c-0.1,0.1-0.2,0.2-0.2,0.3C342.4,227.4,384,161.4,348.1,62.3z M308,264.7c0.1-0.1,0.2-0.2,0.4-0.4
	C308.2,264.4,308.1,264.6,308,264.7z M312.6,259.9C312.7,259.9,312.7,259.9,312.6,259.9C312.7,259.9,312.7,259.9,312.6,259.9z
	 M310.2,262.4c0.1-0.1,0.2-0.3,0.4-0.4C310.5,262.2,310.4,262.3,310.2,262.4z"/>
<g class="st2">
	<defs>
		<path id="SVGID_1_" class="st2" d="M299.8,102.9c-5.9-2.2-45.5-16-84.3-15.2c0.6-0.7,1.5-1.6,2.1-2.3c0.7-0.7,1.6-1.7,2.2-2.5
			c0.7-0.8,1.6-1.8,2.3-2.5c0.7-0.8,1.7-1.8,2.4-2.6c0.7-0.8,1.7-1.8,2.4-2.6c0.7-0.8,1.6-1.8,2.3-2.5c0.7-0.7,1.6-1.7,2.2-2.5
			c0.6-0.7,1.5-1.6,2.1-2.3c38.8-0.7,78.4,13.1,84.3,15.2C312.4,89,305.2,97,299.8,102.9z"/>
	</defs>
	<clipPath id="SVGID_2_">
		<use xlink:href="#SVGID_1_"  style="overflow:visible;"/>
	</clipPath>
	<g class="st3">
		<path class="st4" d="M317.8,83.1l-18,19.8c-5.9-2.2-45.5-16-84.3-15.2c-0.9,0-1.8,0-2.8,0.1c-2,0.1-3.9,0.2-5.9,0.3
			c-0.2,0-0.3,0-0.5,0c-2.1,0.2-4.2,0.4-6.3,0.7c-0.3,0-0.5,0.1-0.8,0.1l18-19.8c0.2,0,0.5-0.1,0.8-0.1c2.1-0.3,4.2-0.5,6.3-0.7
			c0.2,0,0.3,0,0.5,0c2-0.2,3.9-0.3,5.9-0.3c0.9,0,1.8-0.1,2.8-0.1C272.3,67.1,311.9,80.9,317.8,83.1"/>
	</g>
</g>
<g class="st2">
	<defs>
		<path id="SVGID_3_" class="st2" d="M215.5,87.7c-0.9,0-1.8,0-2.8,0.1c6-6.6,12-13.2,18-19.8c0.9,0,1.8-0.1,2.8-0.1
			C227.5,74.5,221.5,81.1,215.5,87.7z"/>
	</defs>
	<clipPath id="SVGID_4_">
		<use xlink:href="#SVGID_3_"  style="overflow:visible;"/>
	</clipPath>
	<g class="st5">
		<path class="st4" d="M317.8,83.1l-18,19.8c-5.9-2.2-45.5-16-84.3-15.2c-0.9,0-1.8,0-2.8,0.1c-2,0.1-3.9,0.2-5.9,0.3
			c-0.2,0-0.3,0-0.5,0c-2.1,0.2-4.2,0.4-6.3,0.7c-0.3,0-0.5,0.1-0.8,0.1l18-19.8c0.2,0,0.5-0.1,0.8-0.1c2.1-0.3,4.2-0.5,6.3-0.7
			c0.2,0,0.3,0,0.5,0c2-0.2,3.9-0.3,5.9-0.3c0.9,0,1.8-0.1,2.8-0.1C272.3,67.1,311.9,80.9,317.8,83.1"/>
	</g>
</g>
<g class="st2">
	<defs>
		<path id="SVGID_5_" class="st2" d="M206.8,88.1c-0.2,0-0.3,0-0.5,0c0.6-0.7,1.5-1.6,2.1-2.3c0.7-0.7,1.6-1.7,2.2-2.5
			c0.7-0.8,1.6-1.8,2.3-2.5c0.7-0.8,1.7-1.8,2.4-2.6c0.7-0.8,1.7-1.8,2.4-2.6c0.7-0.8,1.6-1.8,2.3-2.5c0.7-0.7,1.6-1.7,2.2-2.5
			c0.6-0.7,1.5-1.6,2.1-2.3c0.2,0,0.3,0,0.5,0c2-0.2,3.9-0.3,5.9-0.3c-6,6.6-12,13.2-18,19.8C210.8,87.8,208.8,87.9,206.8,88.1z"/>
	</defs>
	<clipPath id="SVGID_6_">
		<use xlink:href="#SVGID_5_"  style="overflow:visible;"/>
	</clipPath>
	<g class="st6">
		<path class="st4" d="M317.8,83.1l-18,19.8c-5.9-2.2-45.5-16-84.3-15.2c-0.9,0-1.8,0-2.8,0.1c-2,0.1-3.9,0.2-5.9,0.3
			c-0.2,0-0.3,0-0.5,0c-2.1,0.2-4.2,0.4-6.3,0.7c-0.3,0-0.5,0.1-0.8,0.1l18-19.8c0.2,0,0.5-0.1,0.8-0.1c2.1-0.3,4.2-0.5,6.3-0.7
			c0.2,0,0.3,0,0.5,0c2-0.2,3.9-0.3,5.9-0.3c0.9,0,1.8-0.1,2.8-0.1C272.3,67.1,311.9,80.9,317.8,83.1"/>
	</g>
</g>
<g class="st2">
	<defs>
		<path id="SVGID_7_" class="st2" d="M206.3,88.1c-0.3,0-0.5,0-0.8,0.1c6-6.6,12-13.2,18-19.8c0.3,0,0.5,0,0.8-0.1
			c-3,3.3-6,6.6-9,9.9c-0.7,0.8-1.7,1.8-2.4,2.6c-0.7,0.8-1.6,1.8-2.3,2.5c-0.7,0.7-1.6,1.7-2.2,2.5
			C207.8,86.5,207.2,87.7,206.3,88.1z"/>
	</defs>
	<clipPath id="SVGID_8_">
		<use xlink:href="#SVGID_7_"  style="overflow:visible;"/>
	</clipPath>
	<g class="st7">
		<path class="st4" d="M317.8,83.1l-18,19.8c-5.9-2.2-45.5-16-84.3-15.2c-0.9,0-1.8,0-2.8,0.1c-2,0.1-3.9,0.2-5.9,0.3
			c-0.2,0-0.3,0-0.5,0c-2.1,0.2-4.2,0.4-6.3,0.7c-0.3,0-0.5,0.1-0.8,0.1l18-19.8c0.2,0,0.5-0.1,0.8-0.1c2.1-0.3,4.2-0.5,6.3-0.7
			c0.2,0,0.3,0,0.5,0c2-0.2,3.9-0.3,5.9-0.3c0.9,0,1.8-0.1,2.8-0.1C272.3,67.1,311.9,80.9,317.8,83.1"/>
	</g>
</g>
<g class="st2">
	<defs>
		<path id="SVGID_9_" class="st2" d="M205.5,88.2c-1.8,0.2-3.7,0.4-5.5,0.6c0.6-0.7,1.5-1.6,2.1-2.3c0.7-0.7,1.6-1.7,2.2-2.5
			c0.7-0.8,1.6-1.8,2.3-2.5c0.7-0.8,1.7-1.8,2.4-2.6c0.7-0.8,1.7-1.8,2.4-2.6c0.7-0.8,1.6-1.8,2.3-2.5c0.7-0.7,1.6-1.7,2.2-2.5
			c0.6-0.7,1.5-1.6,2.1-2.3c1.8-0.2,3.7-0.4,5.5-0.6c-3,3.3-6,6.6-9,9.9c-0.7,0.8-1.7,1.8-2.4,2.6c-0.3,0.4-0.8,0.9-1.2,1.3
			c-0.3,0.4-0.8,0.9-1.1,1.3c-0.7,0.7-1.6,1.7-2.2,2.5C207,86.6,206.4,87.8,205.5,88.2z"/>
	</defs>
	<clipPath id="SVGID_10_">
		<use xlink:href="#SVGID_9_"  style="overflow:visible;"/>
	</clipPath>
	<g class="st8">
		<path class="st4" d="M317.8,83.1l-18,19.8c-5.9-2.2-45.5-16-84.3-15.2c-0.9,0-1.8,0-2.8,0.1c-2,0.1-3.9,0.2-5.9,0.3
			c-0.2,0-0.3,0-0.5,0c-2.1,0.2-4.2,0.4-6.3,0.7c-0.3,0-0.5,0.1-0.8,0.1l18-19.8c0.2,0,0.5-0.1,0.8-0.1c2.1-0.3,4.2-0.5,6.3-0.7
			c0.2,0,0.3,0,0.5,0c2-0.2,3.9-0.3,5.9-0.3c0.9,0,1.8-0.1,2.8-0.1C272.3,67.1,311.9,80.9,317.8,83.1"/>
	</g>
</g>
<g class="st2">
	<defs>
		<path id="SVGID_11_" class="st2" d="M200,88.8c-0.3,0-0.5,0.1-0.8,0.1l18-19.8c0.2,0,0.5-0.1,0.8-0.1c-3,3.3-6,6.6-9,9.9
			c-0.7,0.8-1.7,1.8-2.4,2.6c-0.3,0.4-0.8,0.9-1.2,1.3c-1.5,1.6-3,3.3-4.5,4.9C200.7,88,200.4,88.6,200,88.8z"/>
	</defs>
	<clipPath id="SVGID_12_">
		<use xlink:href="#SVGID_11_"  style="overflow:visible;"/>
	</clipPath>
	<g class="st9">
		<path class="st4" d="M317.8,83.1l-18,19.8c-5.9-2.2-45.5-16-84.3-15.2c-0.9,0-1.8,0-2.8,0.1c-2,0.1-3.9,0.2-5.9,0.3
			c-0.2,0-0.3,0-0.5,0c-2.1,0.2-4.2,0.4-6.3,0.7c-0.3,0-0.5,0.1-0.8,0.1l18-19.8c0.2,0,0.5-0.1,0.8-0.1c2.1-0.3,4.2-0.5,6.3-0.7
			c0.2,0,0.3,0,0.5,0c2-0.2,3.9-0.3,5.9-0.3c0.9,0,1.8-0.1,2.8-0.1C272.3,67.1,311.9,80.9,317.8,83.1"/>
	</g>
</g>
<g class="st2">
	<defs>
		<path id="SVGID_13_" class="st2" d="M199.2,88.9c6-6.6,12-13.2,18-19.8c0,0,0.1,0,0.1,0l-18,19.8
			C199.2,88.9,199.2,88.9,199.2,88.9z"/>
	</defs>
	<clipPath id="SVGID_14_">
		<use xlink:href="#SVGID_13_"  style="overflow:visible;"/>
	</clipPath>
	<g class="st10">
		<path class="st4" d="M217.3,69.1l-18,19.8c-0.4,0.1-0.7,0.1-0.9,0.1c-0.4,0.1-0.9,0.1-1.3,0.2l18-19.8c0.4-0.1,0.8-0.1,1.3-0.2
			C216.6,69.2,216.9,69.2,217.3,69.1"/>
	</g>
</g>
<g class="st2">
	<defs>
		<path id="SVGID_15_" class="st2" d="M199.2,88.9c-0.4,0.1-0.6,0.1-0.8,0.1c0.6-0.7,1.5-1.6,2.1-2.3c0.7-0.7,1.6-1.7,2.2-2.5
			c0.7-0.8,1.6-1.8,2.3-2.5c0.7-0.8,1.7-1.8,2.4-2.6c0.7-0.8,1.7-1.8,2.4-2.6c0.7-0.8,1.6-1.8,2.3-2.5c0.7-0.7,1.6-1.7,2.2-2.5
			c0.6-0.7,1.5-1.6,2.1-2.3c0.2,0,0.4-0.1,0.8-0.1c-5.5,6-10.9,12-16.4,18c-0.3,0.3-0.5,0.6-0.8,0.9c0,0-0.1,0.1-0.1,0.1
			c-0.1,0.2-0.3,0.3-0.4,0.5c-0.1,0.1-0.1,0.2-0.2,0.2C199.2,88.9,199.2,88.9,199.2,88.9z"/>
	</defs>
	<clipPath id="SVGID_16_">
		<use xlink:href="#SVGID_15_"  style="overflow:visible;"/>
	</clipPath>
	<g class="st11">
		<path class="st4" d="M217.3,69.1l-18,19.8c-0.4,0.1-0.7,0.1-0.9,0.1c-0.4,0.1-0.9,0.1-1.3,0.2l18-19.8c0.4-0.1,0.8-0.1,1.3-0.2
			C216.6,69.2,216.9,69.2,217.3,69.1"/>
	</g>
</g>
<g class="st2">
	<defs>
		<path id="SVGID_17_" class="st2" d="M198.4,89c-0.4,0.1-0.9,0.1-1.3,0.2l18-19.8c0.4-0.1,0.8-0.1,1.3-0.2c-3,3.3-6,6.6-9,9.9
			c-1.2,1.3-2.3,2.6-3.5,3.9c-0.3,0.4-0.8,0.9-1.1,1.3c-0.7,0.7-1.6,1.7-2.2,2.5C199.8,87.4,199.2,88.6,198.4,89z"/>
	</defs>
	<clipPath id="SVGID_18_">
		<use xlink:href="#SVGID_17_"  style="overflow:visible;"/>
	</clipPath>
	<g class="st12">
		<path class="st4" d="M217.3,69.1l-18,19.8c-0.4,0.1-0.7,0.1-0.9,0.1c-0.4,0.1-0.9,0.1-1.3,0.2l18-19.8c0.4-0.1,0.8-0.1,1.3-0.2
			C216.6,69.2,216.9,69.2,217.3,69.1"/>
	</g>
</g>
<g class="st2">
	<defs>
		<path id="SVGID_19_" class="st2" d="M197.1,89.2c-0.4,0-0.8,0.1-1.1,0.1c0.6-0.7,1.5-1.6,2.1-2.3c0.7-0.7,1.6-1.7,2.2-2.5
			c0.7-0.8,1.6-1.8,2.3-2.5c0.7-0.8,1.7-1.8,2.4-2.6c0.7-0.8,1.7-1.8,2.4-2.6c0.7-0.8,1.6-1.8,2.3-2.5c0.7-0.7,1.6-1.7,2.2-2.5
			c0.6-0.7,1.5-1.6,2.1-2.3c0.4,0,0.8-0.1,1.1-0.1C209.7,75.4,204.2,85.6,197.1,89.2z"/>
	</defs>
	<clipPath id="SVGID_20_">
		<use xlink:href="#SVGID_19_"  style="overflow:visible;"/>
	</clipPath>
	<g class="st13">
		<path class="st4" d="M215.1,69.4l-18,19.8c-0.4,0-0.8,0.1-1.1,0.1c-0.4,0-0.7,0.1-1.1,0.1c-46.6,6.6-82.6,38.7-84.5,40.4l18-19.8
			c1.9-1.7,37.9-33.8,84.5-40.4c0.4-0.1,0.7-0.1,1.1-0.1C214.3,69.5,214.7,69.5,215.1,69.4"/>
	</g>
</g>
<g class="st2">
	<defs>
		<path id="SVGID_21_" class="st2" d="M194.8,89.5C194.8,89.5,194.8,89.5,194.8,89.5c6-6.6,12-13.2,18-19.8c0,0,0,0,0,0
			c0.4-0.1,0.7-0.1,1.1-0.1c-6,6.6-12,13.2-18,19.8C195.6,89.4,195.2,89.5,194.8,89.5z"/>
	</defs>
	<clipPath id="SVGID_22_">
		<use xlink:href="#SVGID_21_"  style="overflow:visible;"/>
	</clipPath>
	<g class="st14">
		<path class="st4" d="M215.1,69.4l-18,19.8c-0.4,0-0.8,0.1-1.1,0.1c-0.4,0-0.7,0.1-1.1,0.1c-46.6,6.6-82.6,38.7-84.5,40.4l18-19.8
			c1.9-1.7,37.9-33.8,84.5-40.4c0.4-0.1,0.7-0.1,1.1-0.1C214.3,69.5,214.7,69.5,215.1,69.4"/>
	</g>
</g>
<g>
	<path class="st15" d="M212.3,55.6c5.3-0.7,10.7-1.1,16.1-1.2c42.1-0.8,82.9,14.7,85,15.5c1.6,4.5,3.1,8.9,4.3,13.2
		c-5.9-2.2-45.5-16-84.3-15.2c-0.9,0-1.8,0-2.8,0.1c-2,0.1-3.9,0.2-5.9,0.3c-0.2,0-0.3,0-0.5,0c-2.1,0.2-4.2,0.4-6.3,0.7
		c-0.3,0-0.5,0.1-0.8,0.1c-0.4,0.1-0.7,0.1-0.9,0.1c-0.4,0.1-0.9,0.1-1.3,0.2c-0.4,0-0.8,0.1-1.1,0.1c-0.4,0-0.7,0.1-1.1,0.1
		c-46.6,6.6-82.6,38.7-84.5,40.4c0.8,3.3,1.7,6.4,2.7,9.6c0.6,1.9,1.2,3.7,1.8,5.6c-3.7-8.9-7-18.5-9.5-28.7
		c1.9-1.7,38-33.8,84.5-40.4c0.7-0.1,1.5-0.2,2.3-0.3C210.8,55.8,211.5,55.7,212.3,55.6z"/>
</g>
<g>
	<path class="st0" d="M212.7,69.8c0.6-0.1,0.9-0.1,1.3-0.2c0.4,0,0.8-0.1,1.1-0.1c0.4-0.1,0.8-0.1,1.3-0.2c0.2,0,0.5-0.1,0.7-0.1
		c0.4-0.1,0.7-0.1,0.9-0.1c2.1-0.3,4.2-0.5,6.3-0.7c2.5-0.2,4.4-0.3,6.4-0.4c0.9,0,1.8-0.1,2.8-0.1c38.8-0.7,78.4,13.1,84.3,15.2
		c24.2,83.3-19.1,136.2-39.5,155.6c-5.8,5.5-9.5,8.1-9.7,8.3c-4.8-1.4-96.6-27.6-135.8-121.7c-0.6-1.8-1.2-3.7-1.8-5.6
		c-1-3.1-1.8-6.3-2.7-9.6C130.3,108.4,166.3,76.4,212.7,69.8z"/>
</g>
<g>
	<g>
		<path class="st16" d="M124.5,56.4c1.9-0.3,3.7,0.7,5.4,2.8c0.2,0.2,0.3,0.4,0.5,0.6c-0.9,0.6-1.7,1.1-2.6,1.7
			c-0.2-0.3-0.4-0.5-0.6-0.8c-0.8-0.9-1.4-1.3-2-1.2c-0.3,0-0.5,0.1-0.8,0.3c-0.9,0.6-0.9,1.4,0.1,2.7c3,3.7,8.8,0.8,13,6.1
			c2.3,2.9,2.3,5.5-0.3,7.2c-0.7,0.5-1.5,0.8-2.2,0.9c-1.8,0.3-3.6-0.7-5.3-2.8c-0.3-0.4-0.6-0.7-0.9-1.1c0.8-0.6,1.6-1.2,2.5-1.7
			c0.3,0.4,0.7,0.9,1,1.3c0.7,0.9,1.4,1.2,2,1.1c0.3,0,0.5-0.1,0.8-0.3c0.8-0.6,1-1.4-0.1-2.7c-3-3.8-8.7-0.9-13-6
			c-2.4-2.9-2.4-5.5,0.2-7.3C123,56.8,123.7,56.5,124.5,56.4z"/>
	</g>
	<g>
		<path class="st16" d="M147.5,42.9c3.6,6.8,7.1,13.6,10.6,20.4c-1.3,0.6-2.5,1.3-3.8,2c-2.6-3.2-5.2-6.5-7.9-9.7
			c2,3.6,3.9,7.2,5.8,10.8c-1.3,0.7-2.6,1.4-3.9,2.1c-5-6-10.1-12-15.3-17.9c0.9-0.5,1.9-1.1,2.8-1.6c4,4.7,8,9.4,11.9,14.2
			c-3-5.3-5.9-10.5-8.9-15.8c0.9-0.5,1.9-1,2.8-1.5c4,4.8,7.9,9.6,11.7,14.5c-2.9-5.4-5.8-10.7-8.7-16.1
			C145.8,43.8,146.7,43.3,147.5,42.9z"/>
	</g>
	<g>
		<path class="st16" d="M158.7,38.2c3.8,6.7,7.5,13.3,11.2,20c-1,0.4-2,0.8-3,1.2c-3.7-6.7-7.5-13.3-11.3-20
			C156.6,39,157.6,38.6,158.7,38.2z"/>
	</g>
	<g>
		<path class="st16" d="M191.1,28.6c3.2-0.4,5.5,1.2,6.6,4.4c0.1,0.2,0.2,0.4,0.2,0.7c-1.1,0.2-2.2,0.4-3.2,0.6
			c-0.1-0.3-0.2-0.6-0.3-0.9c-0.5-1.4-1.3-1.9-2.3-1.8c0,0-0.1,0-0.1,0c-1.1,0.2-1.5,0.9-1,2.4c1.6,4.3,8.5,3.9,10.5,10
			c1.1,3.4,0.1,5.6-3.1,6.2c-0.1,0-0.2,0-0.3,0.1c-3.1,0.4-5.3-1.2-6.5-4.4c-0.2-0.4-0.3-0.9-0.5-1.3c1.1-0.2,2.1-0.4,3.2-0.6
			c0.2,0.5,0.4,1,0.5,1.5c0.5,1.4,1.3,1.9,2.3,1.7c0,0,0.1,0,0.1,0c1.1-0.2,1.5-0.9,1-2.4c-1.5-4.4-8.4-3.9-10.6-9.9
			c-1.2-3.4-0.2-5.6,3.2-6.3C190.9,28.6,191,28.6,191.1,28.6z"/>
	</g>
	<g>
		<path class="st16" d="M173.1,33c2.7-0.4,4.8,1.1,6.2,4c0.1,0.2,0.2,0.4,0.3,0.6c-1,0.3-2.1,0.6-3.1,0.9c-0.1-0.3-0.3-0.6-0.4-0.8
			c-0.6-1.3-1.3-1.7-2.2-1.6c-0.1,0-0.3,0-0.4,0.1c-1,0.3-1.4,1.1-0.7,2.5c2,4.2,8.7,3.1,11.4,9c1.5,3.3,0.7,5.7-2.4,6.6
			c-0.4,0.1-0.7,0.2-1.1,0.2c-2.6,0.4-4.7-1-6.1-3.9c-0.2-0.4-0.4-0.8-0.6-1.3c1-0.3,2-0.6,3-0.9c0.2,0.5,0.5,1,0.7,1.5
			c0.6,1.3,1.4,1.7,2.2,1.6c0.1,0,0.3,0,0.4-0.1c1-0.3,1.4-1,0.7-2.5c-2-4.3-8.6-3.1-11.5-8.9c-1.6-3.3-0.9-5.7,2.4-6.7
			C172.4,33.1,172.7,33.1,173.1,33z"/>
	</g>
	<g>
		<path class="st16" d="M285,32.1c3.3,0.8,6.5,1.7,9.8,2.6c-0.1,1-0.3,2-0.4,2.9c-2-0.6-4.1-1.1-6.2-1.7c-0.3,1.9-0.5,3.8-0.8,5.7
			c1.6,0.4,3.2,0.9,4.8,1.3c-0.1,1-0.3,2-0.4,2.9c-1.6-0.4-3.2-0.9-4.8-1.3c-0.3,2-0.5,4-0.7,6c2,0.5,4,1.1,6,1.6
			c-0.1,1-0.2,2-0.4,2.9c-3.1-0.9-6.2-1.7-9.4-2.5C283.3,45.9,284.1,39,285,32.1z"/>
	</g>
	<g class="st2">
		<g>
			<path class="st16" d="M269.9,28.9c3.6,0.7,5.3,2.9,5.1,6.2c-0.2,3.5-0.3,7.1-0.5,10.6c-0.1,2.6-1.2,4-3.2,4.3
				c-0.6,0.1-1.4,0.1-2.2-0.1c-1.8-0.3-3.7-0.7-5.5-1c0.1-7,0.3-14.1,0.5-21.1C266.1,28.2,268,28.5,269.9,28.9z M271.5,34.3
				c0.1-1.5-0.6-2.2-1.7-2.4c-0.7-0.1-1.4-0.3-2-0.4c-0.2,5-0.3,10-0.5,15.1c0.7,0.1,1.3,0.2,2,0.4c0.3,0.1,0.5,0.1,0.7,0
				c0.7-0.1,1.1-0.6,1.1-1.7C271.2,41.6,271.3,37.9,271.5,34.3"/>
		</g>
		<g>
			<path class="st16" d="M245.8,25.7c1.8,0.2,3.6,0.3,5.3,0.5c1.6,7.2,3.3,14.5,4.9,21.7c-1.2-0.1-2.3-0.2-3.5-0.3
				c-0.3-1.3-0.6-2.6-0.9-3.9c-1.4-0.1-2.9-0.3-4.3-0.4c-0.1,1.3-0.2,2.6-0.3,3.8c-1.1-0.1-2.1-0.2-3.2-0.3
				C244.3,39.8,245,32.8,245.8,25.7z M250.9,40.7c-0.8-3.7-1.6-7.3-2.4-11c-0.4,3.5-0.7,7.1-1,10.7
				C248.6,40.5,249.8,40.6,250.9,40.7"/>
		</g>
		<g>
			<path class="st16" d="M217.3,25.4c1.7-0.1,3.3-0.1,5-0.2c1.9,5.1,3.7,10.1,5.5,15.2c-0.2-5.1-0.3-10.2-0.4-15.3
				c1.7,0,3.4-0.1,5-0.1c1.2,7.1,2.4,14.3,3.7,21.5c-1.1,0-2.2,0-3.3,0c-0.9-5.1-1.9-10.3-2.8-15.4c0.1,5.1,0.2,10.3,0.4,15.4
				c-1.1,0-2.2,0-3.3,0.1c-1.8-5-3.7-10.1-5.6-15.1c1,5.1,2,10.1,3,15.2c-1,0-2,0.1-3,0.1C220.2,39.7,218.8,32.6,217.3,25.4z"/>
		</g>
	</g>
</g>
<g>
	<polygon class="st16" points="235.8,87.9 246.8,123.7 281.8,118.8 291.2,149.3 256.2,154.3 267.2,190 237.2,194.2 226.3,158.5 
		191.3,163.4 181.9,132.8 216.9,127.9 205.9,92.1 	"/>
</g>
<path class="st1" d="M405.1,211.6l-4.5-3.8c-6.8-5.8-14.3-10.6-22.1-14.1c-8.6-4-17.5-6-26.4-6.1h-0.4l-18.7-0.2l-55.3-0.6
	l-31.7-0.3l0,0l-4,0l-19.1-0.2l0,0l-43-0.4l0,0l-45.2-0.5l-42.6-0.5l-0.5,0c-16.7,0-31.9,8-45.4,23.9
	c-11.9,13.7-20.8,31.1-26.3,51.9l-1.1,4c-6,22.3-5.1,41.4,2.5,56.7l0.2,0.4c7.3,13.9,19.2,22.8,34.2,25.9l114,28.5l32.3-22.2h66.3
	l30.8,21.2l109.9-27.5c1.9-0.4,3.7-0.8,5.4-1.4l0.5-0.1l-0.1,0c10.3-3.3,16.7-9,20.6-14.1l0.2-0.2c6.1-8.3,11.5-22.7,2.4-44.4
	c-2.6-6.2-5.8-11.5-8.8-17.5L405.1,211.6z M360,340.3L360,340.3C360,340.3,360.1,340.3,360,340.3L360,340.3z"/>
<path class="st17" d="M120.1,222.7l-0.4-0.7c-2.9-5.2-6.7-9.3-11.5-12.4c-4.7-3-10.2-4.6-16.3-4.7c-10.7-0.1-20.9,5.6-30.5,16.9
	c-9.8,11.3-17.3,26.1-22.1,44l-1.1,4c-4.6,17.4-4.4,31.7,1.1,42.7c5.7,11,15.6,16.5,29.2,16.5c9.4,0,17.6-1.6,24.2-4.7
	c6.6-3.1,11.8-6.6,15.6-10.5l0.7-0.7l0.1-1l5.7-44.4l0.3-2.4l-1.8,0l-29.7-0.1l-1.8,0l-0.5,2.4l-3.1,16.3l-0.4,2.2l1.7,0.2l10.9,1.1
	l-2.7,16c-1.2,0.7-2.6,1.3-4.3,1.8c-2.3,0.7-5.2,1.1-8.8,1.1c-7.8,0-12.9-3.2-15.5-9.7c-2.6-6.6-2.5-15.6,0-26.8l0.9-4.1
	c2.6-11.5,6.7-20.9,12-27.9c5.1-6.9,10.8-10.2,17.3-10.2c2.9,0,5.5,0.6,7.5,1.6c1.8,0.9,3.2,2,4.3,3.4l-0.2,14.7l0,1.9l1.4,0
	l12.4,0.1l1.7,0l0.3-2.4l3-23.3L120.1,222.7z"/>
<path class="st17" d="M179.9,279.9l-16.1-72.6l-0.3-1.6l-1.1,0l-11.6-0.1l-1.1,0l-0.5,1.6l-24.9,72.6l-3.6,0.7l-1.6,0.3l-0.2,2.1
	l-1.2,10.3l-0.3,2.4l1.9,0l22.9,0.1l1.9,0l0.2-2.4l0.7-10.2l0.1-2l-1.5-0.4l-2.4-0.6l2.4-7.4l18.2,0.1l1.5,7.4l-2.5,0.6l-1.5,0.3
	l-0.1,2l-0.5,10.2l-0.1,2.4l1.9,0l22.9,0.1l1.9,0l0-2.4l0-10.2l0-2.1l-1.6-0.3L179.9,279.9z M158.2,255.2l-9.5-0.1l6-20.2
	L158.2,255.2z"/>
<polygon class="st17" points="277.2,283.2 276.8,281.3 275.3,280.9 269.6,279.5 260.9,222.9 265.6,221.6 266.9,221.2 266.5,219.3 
	264.8,209.1 264.4,206.7 262.8,206.7 241.9,206.5 240.8,206.5 240.6,208.1 232.4,264.3 214.4,207.8 213.9,206.2 212.8,206.2 
	198,206 191.9,205.9 190.3,205.9 190.4,208.3 190.5,218.6 190.5,220.5 191.8,220.9 196.7,222.3 198.1,279.3 192.6,280.6 191.2,281 
	191.2,283 191.3,293.2 191.3,295.5 193.2,295.5 221,295.6 222.9,295.6 222.7,293.2 222.1,283.1 221.9,281.1 220.4,280.7 
	214.8,279.3 214.2,268 214.2,267.9 214.2,267.9 212.3,245.1 228.8,294.1 229.4,295.6 230.7,295.6 239.7,295.7 241.1,295.7 
	241.4,294.1 249.3,245.1 251.4,268 251.4,268.1 251.4,268.1 252.8,279.5 247.5,280.8 246.1,281.2 246.3,283.1 247.4,293.3 
	247.7,295.7 249.6,295.7 277.4,295.7 279.3,295.8 278.9,293.4 "/>
<polygon class="st17" points="335.8,270.6 335.1,268.2 333.3,268.2 323.6,268.2 321.9,268.2 322.3,270.4 323.9,278.2 306.4,278.2 
	302.1,258.9 321.6,259 323.4,259 322.8,256.6 319.4,243.6 318.7,241.3 317,241.3 298.2,241.1 294.6,224.7 310.2,224.9 312.6,232.7 
	313.2,234.9 314.8,234.9 324,235 325.7,235 325,232.6 318.6,209.6 317.9,207.3 316.4,207.3 277.7,206.9 271.7,206.8 270.1,206.8 
	270.5,209.1 272.3,219.3 272.7,221.3 274.1,221.7 279.2,223.1 290,279.6 284.8,280.9 283.4,281.3 283.7,283.3 285.5,293.4 
	285.9,295.8 287.8,295.8 341,295.9 342.8,295.9 342.2,293.5 "/>
<path class="st17" d="M419.7,295.3c-4.2-9.9-10.3-18.1-18.2-24.2c-7.5-5.9-16.8-10.8-27.7-14.4c-7.2-2.7-12.5-5.3-15.8-7.6
	c-2.8-2-4.7-4.5-5.7-7.6c-1.1-3.4-1-6.1,0.2-8.3c1.3-2.3,4-3.4,8.1-3.4c2.9,0,5.8,0.5,8.6,1.4c2.4,0.8,4.4,1.6,6,2.5l7.6,14.5l1,1.9
	l1.4,0l12.6,0.1l1.7,0l-1-2.3l-9.7-23.1l-0.4-1l-0.8-0.7c-5.4-4.6-11.3-8.4-17.4-11.2c-6.1-2.8-12.2-4.2-18.3-4.3l0,0l0,0
	c-8.2,0.1-14.2,3.2-17.9,9.3c-3.9,6.2-4.5,14.5-1.6,24.4c2.9,10,8.1,18.1,15.5,23.9c7.1,5.5,16.8,10.4,28.8,14.4
	c6.5,2.2,11.5,4.6,14.6,7c2.9,2.2,4.9,5.1,6.3,8.7c1.3,3.5,1.3,6.2-0.1,8.3c-1.5,2.2-4.6,3.3-9.2,3.3c-3.7,0-7.4-0.6-10.7-1.7
	c-3-1-5.5-2.2-7.6-3.7l-6.7-15.2l-0.9-2l-1.6,0l-13.8,0l-1.9,0l0.7,2.4l6.9,23.7l0.3,0.9l0.7,0.7c5.7,5.3,12.3,9.5,19.6,12.4
	c7.3,3,15,4.5,22.8,4.5c11.1,0,19-3,23.4-8.8C424.1,314,424,305.7,419.7,295.3z"/>
<g>
	<path class="st17" d="M128,308.5h2.7v15h4.5v2.5H128V308.5z"/>
	<path class="st17" d="M169.2,315.9h3.8v2.5h-3.8v5.1h4.7v2.5h-7.5v-17.5h7.5v2.5h-4.7V315.9z"/>
	<path class="st17" d="M214.6,326h-2.8l-0.5-3.2H208l-0.5,3.2H205l2.8-17.5h4L214.6,326z M208.3,320.4h2.6l-1.3-8.8L208.3,320.4z"/>
	<path class="st17" d="M250,316.2h3.8v5.5c0,2.8-1.4,4.4-4.1,4.4s-4.1-1.6-4.1-4.4v-9.1c0-2.8,1.4-4.4,4.1-4.4s4.1,1.6,4.1,4.4v1.7
		h-2.6v-1.9c0-1.2-0.5-1.7-1.4-1.7c-0.9,0-1.4,0.5-1.4,1.7v9.4c0,1.2,0.5,1.7,1.4,1.7c0.9,0,1.4-0.5,1.4-1.7v-3.2H250V316.2z"/>
	<path class="st17" d="M288.2,308.5V322c0,1.2,0.5,1.7,1.4,1.7s1.4-0.4,1.4-1.7v-13.5h2.6v13.3c0,2.8-1.4,4.4-4.1,4.4
		s-4.1-1.6-4.1-4.4v-13.3H288.2z"/>
	<path class="st17" d="M328.3,315.9h3.8v2.5h-3.8v5.1h4.7v2.5h-7.5v-17.5h7.5v2.5h-4.7V315.9z"/>
</g>
<g>
	<g>
		<g>
			<path class="st18" d="M223.6,97.1c0.8-0.1,1.7,0.2,2.4,1l9.5,11.1c1.2,1.4,0.7,3.3-1,3.6l-11.7,1.6c-1.6,0.2-3.3-1.4-3-3
				l2.2-12.8C222.1,97.7,222.8,97.2,223.6,97.1z"/>
		</g>
	</g>
</g>
<g>
	<g>
		<g>
			<path class="st18" d="M259.9,128.9c0.3,0,0.6,0,0.9,0.1l14.6,4.7c1.7,0.5,2.3,2.6,1.1,3.6l-10.6,8.2c-0.2,0.2-0.5,0.3-0.8,0.3
				c-1,0.1-2.2-0.6-2.6-1.7l-3.9-12.9C258.2,130,258.9,129.1,259.9,128.9z"/>
		</g>
	</g>
</g>
<g>
	<g>
		<g>
			<path class="st18" d="M251.7,166.5c1.3-0.2,2.6,1.1,2.4,2.4l-2.5,14.4c-0.1,0.7-0.6,1.1-1.3,1.2c-0.6,0.1-1.3-0.2-1.9-0.8
				l-10.8-12.6c-0.9-1.1-0.5-2.6,0.8-2.8L251.7,166.5z"/>
		</g>
	</g>
</g>
<g>
	<g>
		<g>
			<path class="st18" d="M208.5,136.1c0.9-0.1,1.9,0.5,2.2,1.5l4.3,13.9c0.3,1-0.3,1.8-1.1,1.9c-0.2,0-0.5,0-0.8-0.1l-15.7-5
				c-1.4-0.5-2-2.2-0.9-3l11.4-8.8C208,136.2,208.2,136.1,208.5,136.1z"/>
		</g>
	</g>
</g>
</svg>
