<?xml version="1.0" encoding="utf-8"?>
<!-- Generator: Adobe Illustrator 22.1.0, SVG Export Plug-In . SVG Version: 6.00 Build 0)  -->
<svg version="1.1" id="Calque_1" xmlns="http://www.w3.org/2000/svg" xmlns:xlink="http://www.w3.org/1999/xlink" x="0px" y="0px"
	 viewBox="0 0 99.9 100" style="enable-background:new 0 0 99.9 100;" xml:space="preserve">
<style type="text/css">
	.st0{fill:#FFFFFF;}
</style>
<polygon class="st0" points="64.9,50 99.9,47.8 64.9,48.7 99.5,43.3 64.7,47.3 98.7,38.9 64.4,46 97.5,34.5 64,44.7 95.9,30.3 
	63.5,43.5 94,26.3 62.8,42.3 91.7,22.5 62.1,41.2 89,18.8 61.2,40.1 86.1,15.4 60.3,39.2 82.8,12.3 59.3,38.3 79.3,9.5 58.2,37.5 
	75.6,7.1 57.1,36.8 57.1,36.8 71.6,5 55.8,36.2 55.8,36.2 67.5,3.2 54.6,35.7 63.3,1.8 53.3,35.4 58.9,0.8 52,35.1 54.4,0.2 
	50.6,35 49.9,0 49.3,35 45.5,0.2 47.9,35.1 41,0.8 46.6,35.4 36.6,1.8 45.3,35.7 32.4,3.2 44.1,36.2 44.1,36.2 28.3,5 42.8,36.8 
	42.8,36.8 24.3,7.1 41.7,37.5 20.6,9.5 40.6,38.3 17.1,12.3 39.6,39.2 13.8,15.4 38.7,40.1 10.9,18.8 37.8,41.2 8.2,22.5 37.1,42.3 
	5.9,26.3 36.4,43.5 4,30.3 35.9,44.7 2.4,34.5 35.5,46 1.2,38.9 35.2,47.3 0.4,43.3 35,48.7 0,47.8 34.9,50 0,52.2 35,51.3 
	0.4,56.7 35.2,52.7 1.2,61.1 35.5,54 2.4,65.5 35.9,55.3 4,69.7 36.4,56.5 5.9,73.7 37.1,57.7 8.2,77.5 37.8,58.8 10.9,81.2 
	38.7,59.9 13.8,84.6 39.6,60.8 17.1,87.7 40.6,61.7 20.6,90.5 41.7,62.5 24.3,92.9 42.8,63.2 42.8,63.2 28.3,95 44.1,63.8 
	44.1,63.8 32.4,96.8 45.3,64.3 36.6,98.2 46.6,64.6 41,99.2 47.9,64.9 45.5,99.8 49.3,65 49.9,100 50.6,65 54.4,99.8 52,64.9 
	58.9,99.2 53.3,64.6 63.3,98.2 54.6,64.3 67.5,96.8 55.8,63.8 55.8,63.8 71.6,95 57.1,63.2 57.1,63.2 75.6,92.9 58.2,62.5 
	79.3,90.5 59.3,61.7 82.8,87.7 60.3,60.8 86.1,84.6 61.2,59.9 89,81.2 62.1,58.8 91.7,77.5 62.8,57.7 94,73.7 63.5,56.5 95.9,69.7 
	64,55.3 97.5,65.5 64.4,54 98.7,61.1 64.7,52.7 99.5,56.7 64.9,51.3 99.9,52.2 "/>
</svg>
