<svg version="1" xmlns="http://www.w3.org/2000/svg" width="933.333" height="933.333" viewBox="0 0 700.000000 700.000000"><path d="M332 120.6c-1.9.2-7.8.9-13 1.5-43.9 5-91.8 26-131 57.6-9.5 7.6-29.8 27.4-41.3 40.4l-7.6 8.5 5.5 21.5c6.6 26 11.6 40.8 20 59.9 3.5 7.9 6 14.7 5.6 15-.4.4-2.7 1.2-5.2 1.9-26.9 7.7-54.8 37.8-69.5 75.1-16.5 41.6-18.4 76.8-5.6 103.5 4.9 10.3 11.8 19.4 19.5 25.6 12.2 9.9 14.1 10.5 97.7 31.4l76.8 19.2 20.2-13.8 20.2-13.9h73.2l18.9 13c10.4 7.2 19.6 13 20.5 13 .9 0 34.6-8.3 75-18.5 84.3-21.1 83.7-20.9 96.1-33.4 11.7-11.7 17-24.7 17-41.6 0-11.6-3.1-22.9-10.1-37.5-3.4-6.9-13.2-29.5-21.9-50.4-17.6-41.9-15.1-37.9-30.9-49.9-8.8-6.6-24.5-14.9-32.8-17.3-3.2-.9-6.1-1.9-6.6-2.3-.4-.4.3-6.1 1.5-12.7 3-16.4 3.3-57.1.5-73.9-4.1-24.7-7.9-38.5-18.4-67.6l-7.5-20.7-14.6-5.6c-37.6-14.3-65.6-21.6-99.7-26.1-11.6-1.5-45.3-2.8-52.5-1.9zm16.4 31.4l3.1 8.5.3-8.8.3-8.8 2.6.3c2.6.3 2.8.7 4.8 12.5 2.1 11.6 2.1 12.3.4 12.3-1.4 0-2-1.5-3-7.3-1.7-9.9-2.5-10.2-2-.7.3 7.5.2 8-1.7 8-1.6 0-2.6-1.6-4.7-7.5-1.6-4.2-3-7.3-3.2-7.1-.4.4 1.2 9.7 2.4 13.9.4 1.4 0 1.8-1.3 1.5-1.4-.2-2.3-2.6-4.1-11.3-2.9-14.5-2.9-14.7.3-14.3 2.4.3 3.1 1.3 5.8 8.8zm33.6 1.7c1.2 5.4 2.5 11.3 3 13 .7 2.9.6 3.3-1.1 3.3-1.2 0-2.1-.9-2.5-2.5-.3-1.4-1.2-2.5-1.9-2.5s-2-.3-2.9-.6c-1.2-.5-1.6 0-1.6 2 0 1.8-.5 2.6-1.8 2.6-1.7 0-1.7-.7-.6-12.3.7-6.7 1.3-12.3 1.3-12.5.1-.1 1.4-.2 3-.2 2.9 0 3 .1 5.1 9.7zm20.8-6.2c5.4 1.1 6.5 4 5.7 14.5-.8 10.3-1.8 11.5-8.2 10.2l-3.8-.8-.3-12.8c-.2-11.8-.1-12.7 1.5-12.3 1 .3 3.3.8 5.1 1.2zM313 149c3.5 3.5 1.6 5.8-2.1 2.4-2.1-1.9-3.9-1.1-3.9 1.6 0 1.2 2 3.2 5.4 5.4 5.9 3.8 7.6 6 7.6 10 0 2.7-2.4 4.6-5.9 4.6-2.2 0-6.1-3.6-6.1-5.7s2.6-1.5 4.3.9c1.1 1.8 1.8 2 2.7 1.2 1.9-1.9.7-4.7-2.9-6.9-6-3.6-9.1-7.1-9.1-10.4 0-5 6.2-6.9 10-3.1zm119.7 6.5c-.3.5-1.9.9-3.7.7-3.6-.3-5 1-5 4.6 0 1.7.7 2.4 3 2.8 4.5 1 4 3.8-.5 3.1l-3.5-.6v4c0 3.6.3 4 3 4.6 1.7.3 3.3 1 3.6 1.5 1.3 2-1.3 2.5-5.8 1.2-5.5-1.7-5.4-1-3.6-16l1.1-10.1 5.9 1.6c3.2.8 5.7 2 5.5 2.6zm-142.3-1.4c3.1 2.4 3.3 3.9.6 3.9-1.1 0-2-.5-2-1 0-1.1-3.3-1.4-4.3-.4-1.3 1.3 1.5 4.5 6.1 6.8 7.8 3.9 10.9 9.1 7.6 12.7-2.5 2.8-6.8 2.4-9.4-.8-2.6-3.3-.6-5.3 2.3-2.2 2.1 2.3 3.6 2.4 4.3.4.9-2.1-1.2-4.3-6.7-7.1-5.5-2.7-7.9-5.7-7.9-9.7 0-1.9.7-3 2.3-3.7 3.3-1.3 4.2-1.2 7.1 1.1zm-15.7 16.5c3.4 6 6.3 11.2 6.3 11.5 0 .4-.6.9-1.4 1.2-1 .4-3.4-2.9-8-11-6.1-10.7-7.2-14-4.3-13 .7.2 4 5.3 7.4 11.3zm-13.8 6.1c5.6 10.9 5.9 11.9 4.3 13.1-1.5 1.1-2.3.7-6.5-4l-4.9-5.3 3.2 5.9c1.7 3.2 3 5.9 2.8 6.1-3.4 2.7-4 2.3-13-8.2-8-9.2-9.6-12.3-6.8-12.3.5 0 3.7 3.4 7.2 7.5 3.4 4.1 6.3 7.3 6.5 7.1.2-.2-1.7-4-4.3-8.6-3.7-6.6-4.4-8.4-3.3-9.1 1-.7 2.4.3 4.9 3.3 1.9 2.3 5 5.8 6.8 7.8 3.3 3.5 3.3 3.4-1.2-5.1-5.1-9.5-5.2-9.9-3.1-9.9.8 0 3.9 4.9 7.4 11.7zm-29.3 5.7c1.5 1.2 1.6 1.7.7 2.7-1 1-1.5 1-2.7 0-1.7-1.4-3.6-.7-3.6 1.4 0 2 3.7 4.1 8.4 5 4.4.7 9.6 5.3 9.6 8.4 0 2.6-2.6 5.1-5.4 5.1-2.8 0-7.4-4.5-5.4-5.3.7-.2 2.1.2 3 1 1.8 1.6 3.8 1 3.8-1.1 0-2.2-3.3-4.4-7.9-5.1-5.3-.9-10.1-5.1-10.1-8.9 0-4.2 5.6-6.1 9.6-3.2zM368 240.5c5.7 18.7 6.8 21.5 8.5 21.5 1.1 0 10.7-1.3 21.3-2.9l19.2-2.8 4.1 13.1c2.2 7.2 4.7 15.3 5.6 17.9.8 2.7 1.3 5 1.1 5.3-.3.2-9.6 1.7-20.7 3.3-11.2 1.6-20.4 3.1-20.6 3.3-.2.2 1.6 6.9 4.1 14.8 2.4 8 5.1 16.6 5.9 19.2l1.4 4.8h-37.4l-4.9-16.3c-2.7-8.9-5.2-16.5-5.5-17-.4-.4-9.9.6-21.2 2.2-11.2 1.7-20.7 2.7-21 2.3-.9-.9-11.2-35.2-10.8-35.7.2-.2 9.4-1.5 20.4-3 11-1.5 20.3-3 20.6-3.4.4-.3-2.2-10-5.8-21.5-3.5-11.4-6.2-21-6-21.3.4-.4 29.5-4.9 33.7-5.2 1.1-.1 3.2 5.5 8 21.4zM202.3 363.8c5.3 2.4 13.6 9.7 16.8 14.9 2 3.3 2.1 3.5.5 15.6-.9 6.7-1.9 13.9-2.2 15.9l-.6 3.8H199v-9.8c0-8.9-.2-10.1-2.2-12-5-4.6-14.2-5.5-21.8-2.1-10.6 4.8-20.6 21.1-26.1 42.4-6.7 26.5-4.2 43 7.5 49.2 4.6 2.5 16.9 2.3 22.1-.2 3.9-2 4-2.2 5.2-9.5.7-4.1 1.5-8.5 1.8-9.7.5-2 0-2.2-7-2.8-8.6-.8-8.3-.3-6.1-11.2.8-3.7 1.7-8.5 2-10.6l.7-3.7h40.2l-.6 2.7c-.3 1.6-2 14.7-3.8 29.2l-3.4 26.5-6 4.4c-11 8.1-19.9 11.6-33.7 13.3-15.3 1.8-27.4-1.1-35.8-8.7-16-14.4-17.6-38.5-5.4-76.9 3.5-10.8 12.4-28.7 17.9-36 5.7-7.6 15.9-18 20.4-20.7 8.7-5.4 14.1-6.9 23.6-6.5 6.3.3 10.4 1 13.8 2.5zm71.3-1.4c.1 0 4.6 20.1 10.1 44.5l9.8 44.5 3.3.8 3.2.9V470h-32v-4.8c0-7.9 1.1-12.4 3.2-13 1.9-.5 2.2-2 1.2-7.1l-.6-3.1H249.1l-1 3.7c-1.5 5.3-1.4 6 1 6.6 2 .5 2.1 1 1.6 5.9-.4 2.9-.7 6.8-.7 8.5v3.3h-32.2l.6-4.5c.3-2.5.9-6.5 1.2-9 .5-3.7 1-4.5 2.8-4.5 1.1 0 2.6-.4 3.2-.8.6-.4 8-20.8 16.4-45.3l15.2-44.6 8.2.5c4.4.2 8.2.5 8.2.6zm64.6 10.8c2 6.2 7.1 22 11.3 35.1 4.2 13.2 7.8 23.7 8 23.5.2-.1 2.4-14.7 4.9-32.3 2.6-17.6 4.9-33 5.1-34.3.5-2.2.8-2.2 14.5-2.2h13.9l.6 3.2c.3 1.8.9 5.5 1.4 8.3.5 2.7.8 5.3.5 5.6-.2.4-1.7.9-3.4 1.2-1.6.4-3 1.3-3 2 0 .8 2.3 15.9 5 33.7 2.8 17.8 5 32.7 5 33.1 0 .5 2 1.4 4.4 2 4.8 1.2 4.7 1.1 6.2 10.4.3 2.2.8 4.8 1.1 5.7.4 1.7-1 1.8-18.6 1.8h-18.9l-.7-6.8c-.4-3.7-.9-7.4-1.1-8.3-.3-1.3.5-1.9 3.3-2.6 3.7-.9 3.8-1 3.8-5.3-.1-5.2-2.3-28.8-3.2-34-.4-2.6-1.5 2.4-4.4 20-2.1 12.9-4.4 26.6-5 30.3l-1.1 6.8-7-.3-7.1-.3-10-29.3c-5.5-16.1-10.1-29.1-10.4-28.9-.2.2.3 8.8 1.2 19.1.8 10.3 1.5 19.2 1.5 19.7s2 1.4 4.5 2l4.5 1.1v6.8c0 3.8.3 7.5.6 8.4.5 1.4-1.5 1.6-18.5 1.6h-19.2l.3-8.7.3-8.7 3.8-.9 3.8-.9-.6-31.7c-.3-17.4-.8-33-1.1-34.7-.3-2.5-1.1-3.3-3.7-4l-3.2-1-.3-8.7-.3-8.7H334.6l3.6 11.2zm122.4-8.9c.6.6 9.3 30.3 9.4 32 0 .4-3.2.7-7.2.5l-7.2-.3-2-6.3-2-6.2h-9.3c-10.6 0-10.1-.6-7.8 9.7.9 3.7 1.8 7.8 2 9 .5 2.2.9 2.3 13 2.3h12.4l1.1 4.2c.6 2.4 1.8 6.6 2.6 9.5.7 2.8 1.4 5.6 1.4 6.2 0 .7-4.1 1.1-12.5 1.1-7.3 0-12.5.4-12.5 1 0 .8 1.3 6.5 4.5 20.7.5 2.2 1 2.3 11.1 2.3h10.7l-.7-5c-.4-2.8-1-5.8-1.3-6.7-.6-1.4.3-1.5 7.1-1.1 4.2.3 7.9.7 8.2 1 .5.6 9.5 32.1 9.1 32.4-.1.1-15.6-.1-34.3-.4l-34.2-.5-1.1-6.8c-1.5-9.4-1.5-9.5 2.2-10.5 2.1-.6 3.3-1.7 3.4-2.9.1-1.1-2.6-16.6-6-34.4l-6.3-32.5-4-1.3-4.1-1.4-1.5-8.6-1.5-8.6 28.4.5c15.6.3 28.6.7 28.9 1.1zm50.3.7c10.4 1.9 24.4 8.9 32.2 16 3.1 2.8 5.1 6.3 9.9 18 3.3 8 6 14.8 6 15.2 0 .5-4 .8-8.9.8h-9l-5.3-10c-5.2-9.8-5.4-10.1-10.6-12-3.3-1.2-7.7-2-11.8-2-8.3 0-11.4 2.5-11.4 9.3 0 5.3 2.7 9.7 8.6 14.2 4 3.1 7.2 4.5 25.9 12 24 9.5 39.9 24.3 47.8 44.4 4.1 10.6 4.7 19.4 1.7 25.6-4.5 9.3-14.8 13.8-31 13.7-16.2-.2-32-5.7-45.2-15.9-5.3-4-5.9-4.9-7.8-11.6-1.2-4-3.2-10.8-4.6-15.3-1.3-4.4-2.4-8.6-2.4-9.2 0-1 2.6-1.2 10-1l10.1.3 4.6 10.4c4.7 10.4 4.7 10.4 10.2 12.9 6.7 3.1 20.9 4.2 25.1 2 7.8-4.2 3.2-18.7-8.2-25.5-2.9-1.8-9.8-4.8-15.3-6.8-33.2-12-46.9-24.5-53.1-48.5-2.1-8.3-1.5-18.9 1.4-24.5 5.7-11.1 16.2-15.3 31.1-12.5zM234 495c0 8.9 0 9 2.5 9 1.6 0 2.5.6 2.5 1.5 0 1.1-1.1 1.5-4 1.5h-4v-10.5c0-8.7.3-10.5 1.5-10.5s1.5 1.7 1.5 9zm52-7.5c0 .9-.9 1.5-2.5 1.5-2.1 0-2.5.5-2.5 3 0 2.3.4 3 2 3 1.1 0 2 .7 2 1.5s-.9 1.5-2 1.5c-1.6 0-2 .7-2 3 0 2.5.4 3 2.5 3 1.6 0 2.5.6 2.5 1.5 0 1.1-1.1 1.5-4 1.5h-4v-21h4c2.9 0 4 .4 4 1.5zm46.5.7c1.1 5.3 2.5 14.3 2.5 16.5 0 2.8-2 3.1-2.7.3-.3-1.1-1.4-2-2.5-2s-2.2.9-2.5 2c-.7 2.5-2.3 2.6-2.3.2 0-1.9 1.7-13.4 2.5-17 .3-1.3 1.3-2.2 2.5-2.2s2.1.8 2.5 2.2zm49.3-1c1.7 1.7 1.5 5.8-.3 5.8-.8 0-1.5-.9-1.5-2s-.7-2-1.5-2c-1.3 0-1.5 1.3-1.3 7.7.2 4.8.7 7.6 1.3 7.3.6-.3 1-2.2.9-4.3-.1-3 .3-3.7 1.8-3.7s1.8.8 1.8 4.3c0 4.7-1.3 6.7-4.5 6.7-3.7 0-4.5-2-4.5-10.5s.8-10.5 4.5-10.5c1.2 0 2.6.5 3.3 1.2zm43.4 8c.2 7.5.6 9.3 1.8 9.3 1.2 0 1.6-1.8 1.8-9.3.2-5.2.7-9.2 1.3-9.2.6 0 .9 3.9.7 10.2l-.3 10.3-2.8.3c-4.9.6-5.7-1.1-5.7-11.4 0-7.6.3-9.4 1.5-9.4 1.1 0 1.5 1.9 1.7 9.2zm53.8-7.7c0 1-1 1.5-3 1.5-2.7 0-3 .3-3 3 0 2.5.4 3 2.5 3 1.6 0 2.5.6 2.5 1.5s-.9 1.5-2.5 1.5c-2.1 0-2.5.5-2.5 3 0 2.7.3 3 3 3 2 0 3 .5 3 1.5 0 1.1-1.1 1.5-4 1.5h-4v-21h4c2.9 0 4 .4 4 1.5z"/><path d="M376 155.5c0 4.1.4 5.7 1.5 6.2.9.3 1.8.3 2 .1.8-.8-1.7-11.8-2.6-11.8-.5 0-.9 2.5-.9 5.5zM400 154.9c0 2.6-.3 6.9-.6 9.5-.6 4.4-.6 4.6 1.9 4.6 3.1 0 3.7-1.5 3.7-10 0-5.8-.3-7.1-1.9-8-3-1.5-3.1-1.4-3.1 3.9zM345.2 230.2c-1.4 1.8-3.7 17.1-2.8 19.3.6 1.6 1.5 1.7 7.8 1.1 14-1.3 14.7-2.5 6.7-12-8.2-9.6-9.7-10.7-11.7-8.4zM389 270.4c0 1.4 1.1 6.1 2.5 10.5 3.2 10 4 10.1 13.6 2.8 9.3-7.1 9.1-8.2-2.6-12.4-11.3-4-13.5-4.1-13.5-.9zM320.2 282.5c-10 7.8-9.7 8.6 3.1 12.6 5.6 1.7 10.4 3.3 10.7 3.4.3.2 1.2 0 1.9-.5 2.2-1.3-3.9-20.4-6.6-20.8-1.2-.2-4.8 1.9-9.1 5.3zM375 314.1c-11.5 1.8-12 1.9-12 3.7 0 2.5 13.8 18.2 16 18.2 1.5 0 2.1-1.6 3.6-9.7 1.6-9.3 1.4-12.4-1.2-12.9-.5-.1-3.4.2-6.4.7zM259.7 407.8c-1.5 5.3-3 10.7-3.4 11.9-.5 2.2-.2 2.3 5 2.3 3.1 0 5.8-.3 6-.8.5-1-3.4-23.2-4.2-23.2-.3 0-1.9 4.4-3.4 9.8zM329 492.7c0 1.1-.3 3.5-.6 5.2-.6 2.7-.4 3.1 1.4 3.1 1.8 0 2-.5 1.5-4.3-.6-4.5-2.3-7.6-2.3-4z"/></svg>