<?xml version="1.0" encoding="utf-8"?>
<!-- Generator: Adobe Illustrator 22.1.0, SVG Export Plug-In . SVG Version: 6.00 Build 0)  -->
<svg version="1.1" id="Calque_1" xmlns="http://www.w3.org/2000/svg" xmlns:xlink="http://www.w3.org/1999/xlink" x="0px" y="0px"
	 viewBox="0 0 421.2 264" style="enable-background:new 0 0 421.2 264;" xml:space="preserve">
<style type="text/css">
	.st0{fill:#230910;}
	.st1{fill:#DB2140;}
	.st2{enable-background:new    ;}
	.st3{clip-path:url(#SVGID_2_);enable-background:new    ;}
	.st4{fill:#59101F;}
	.st5{clip-path:url(#SVGID_4_);enable-background:new    ;}
	.st6{clip-path:url(#SVGID_6_);enable-background:new    ;}
	.st7{clip-path:url(#SVGID_8_);enable-background:new    ;}
	.st8{clip-path:url(#SVGID_10_);enable-background:new    ;}
	.st9{clip-path:url(#SVGID_12_);enable-background:new    ;}
	.st10{clip-path:url(#SVGID_14_);enable-background:new    ;}
	.st11{clip-path:url(#SVGID_16_);enable-background:new    ;}
	.st12{clip-path:url(#SVGID_18_);enable-background:new    ;}
	.st13{clip-path:url(#SVGID_20_);enable-background:new    ;}
	.st14{clip-path:url(#SVGID_22_);enable-background:new    ;}
	.st15{fill:#AB1738;}
	.st16{fill:#FCFCFC;}
	.st17{fill:#FFFFFF;}
	.st18{fill:#D9213F;}
</style>
<path class="st0" d="M418.3-0.7H205.9H-1.4v0.4v264.6h218.3h76.4c12.5-15.8,74.3-94.8,79.4-120.1l-19.7-7.5
	C353.1,136.7,410.8,55.5,418.3-0.7z"/>
<g>
	<g>
		<path class="st1" d="M260.2,175.5c-1-2.4-2.1-4.6-3.5-6.7l-6.6-15.8l-7-16.7l-3.2-2.7c-3.8-3.2-7.9-5.9-12.2-7.8
			c-2.5-1.2-5.1-2-7.8-2.6c3.8-16.5,3.7-36.7-5-60.5l-4.4-12l-12.1-4.6c-2.6-1-25.6-9.5-50.1-9.5c-0.7,0-1.3,0-2,0
			c-3.8,0.1-7.4,0.3-10.9,0.8c-0.4,0.1-0.7,0.1-1.1,0.2c-0.4,0-0.8,0.1-1.1,0.2c-28.7,4-50.8,23-53.2,25.2l-7.1,6.3l-11,12.1
			L65.3,94c2.4,9.6,5.9,18.8,10.4,27.5c-7.6,1.5-14.5,5.9-20.6,13.1c-6.5,7.5-11.3,16.9-14.2,28l-0.5,2c-3.3,12.4-2.8,23.2,1.6,32
			l0.2,0.3c4.3,8.3,11.4,13.7,20.5,15.6l59.4,14.8l16.8-11.5h30.2l16.1,11l57.2-14.3c1-0.2,2-0.5,3-0.7h0.1l-0.1-1.2l0.3,1.1
			c5.3-1.7,9.7-4.7,12.8-8.8l0.1-0.1C261.6,198.5,266,189.3,260.2,175.5z"/>
		<path class="st0" d="M210.4,64.4l-3.6-9.8l-9.9-3.8c-2.6-1-26-9.6-50.2-9.1c-3.6,0.1-7,0.3-10.3,0.8c-0.4,0.1-0.7,0.1-1.1,0.2
			c-0.4,0-0.8,0.1-1.1,0.2c-27.3,3.8-48.3,21.9-50.6,24L76.7,73l-9,9.9l2.5,10c7.4,29.3,25,54.4,51.1,72.7
			c19,13.3,35.8,18.4,37.7,18.9l8.5,2.4l6.4-4.5c0.5-0.3,3-2.2,6.5-5.5c1.4-1.3,2.9-2.8,4.5-4.6l9-9.9l-0.1,0.1
			C207.6,147.2,228.5,114.1,210.4,64.4z M190.3,166c0.1-0.1,0.1-0.1,0.2-0.2C190.4,165.9,190.3,165.9,190.3,166z M192.6,163.6
			L192.6,163.6L192.6,163.6z M191.4,164.9c0.1-0.1,0.1-0.1,0.2-0.2C191.5,164.7,191.5,164.8,191.4,164.9z"/>
		<g class="st2">
			<g>
				<defs>
					<path id="SVGID_1_" d="M186.2,84.8c-3-1.1-22.8-8-42.3-7.6c0.3-0.3,0.7-0.8,1.1-1.2c0.3-0.4,0.8-0.9,1.1-1.2
						c0.3-0.4,0.8-0.9,1.2-1.3s0.8-0.9,1.2-1.3s0.8-0.9,1.2-1.3c0.3-0.4,0.8-0.9,1.2-1.3c0.3-0.4,0.8-0.9,1.1-1.2
						c0.3-0.3,0.7-0.8,1.1-1.2c19.5-0.4,39.4,6.6,42.3,7.6C192.5,77.8,188.9,81.8,186.2,84.8z"/>
				</defs>
				<clipPath id="SVGID_2_">
					<use xlink:href="#SVGID_1_"  style="overflow:visible;"/>
				</clipPath>
				<g class="st3">
					<path class="st4" d="M195.2,74.8l-9,9.9c-3-1.1-22.8-8-42.3-7.6c-0.5,0-0.9,0-1.4,0c-1,0-2,0.1-3,0.2c-0.1,0-0.2,0-0.3,0
						c-1.1,0.1-2.1,0.2-3.2,0.3c-0.1,0-0.3,0-0.4,0.1l9-9.9c0.1,0,0.3,0,0.4-0.1c1-0.1,2.1-0.3,3.2-0.3c0.1,0,0.2,0,0.3,0
						c1-0.1,2-0.1,3-0.2c0.5,0,0.9,0,1.4,0C172.4,66.8,192.2,73.7,195.2,74.8"/>
				</g>
			</g>
		</g>
		<g class="st2">
			<g>
				<defs>
					<path id="SVGID_3_" d="M143.8,77.1c-0.5,0-0.9,0-1.4,0c3-3.3,6-6.6,9-9.9c0.5,0,0.9,0,1.4,0C149.9,70.5,146.9,73.8,143.8,77.1z
						"/>
				</defs>
				<clipPath id="SVGID_4_">
					<use xlink:href="#SVGID_3_"  style="overflow:visible;"/>
				</clipPath>
				<g class="st5">
					<path class="st4" d="M195.2,74.8l-9,9.9c-3-1.1-22.8-8-42.3-7.6c-0.5,0-0.9,0-1.4,0c-1,0-2,0.1-3,0.2c-0.1,0-0.2,0-0.3,0
						c-1.1,0.1-2.1,0.2-3.2,0.3c-0.1,0-0.3,0-0.4,0.1l9-9.9c0.1,0,0.3,0,0.4-0.1c1-0.1,2.1-0.3,3.2-0.3c0.1,0,0.2,0,0.3,0
						c1-0.1,2-0.1,3-0.2c0.5,0,0.9,0,1.4,0C172.4,66.8,192.2,73.7,195.2,74.8"/>
				</g>
			</g>
		</g>
		<g class="st2">
			<g>
				<defs>
					<path id="SVGID_5_" d="M139.5,77.3c-0.1,0-0.2,0-0.3,0c0.3-0.3,0.7-0.8,1.1-1.2c0.3-0.4,0.8-0.9,1.1-1.2
						c0.3-0.4,0.8-0.9,1.2-1.3c0.4-0.4,0.8-0.9,1.2-1.3s0.8-0.9,1.2-1.3c0.3-0.4,0.8-0.9,1.2-1.3c0.3-0.4,0.8-0.9,1.1-1.2
						c0.3-0.3,0.7-0.8,1.1-1.2c0.1,0,0.2,0,0.3,0c1-0.1,2-0.1,3-0.2c-3,3.3-6,6.6-9,9.9C141.5,77.2,140.5,77.2,139.5,77.3z"/>
				</defs>
				<clipPath id="SVGID_6_">
					<use xlink:href="#SVGID_5_"  style="overflow:visible;"/>
				</clipPath>
				<g class="st6">
					<path class="st4" d="M195.2,74.8l-9,9.9c-3-1.1-22.8-8-42.3-7.6c-0.5,0-0.9,0-1.4,0c-1,0-2,0.1-3,0.2c-0.1,0-0.2,0-0.3,0
						c-1.1,0.1-2.1,0.2-3.2,0.3c-0.1,0-0.3,0-0.4,0.1l9-9.9c0.1,0,0.3,0,0.4-0.1c1-0.1,2.1-0.3,3.2-0.3c0.1,0,0.2,0,0.3,0
						c1-0.1,2-0.1,3-0.2c0.5,0,0.9,0,1.4,0C172.4,66.8,192.2,73.7,195.2,74.8"/>
				</g>
			</g>
		</g>
		<g class="st2">
			<g>
				<defs>
					<path id="SVGID_7_" d="M139.2,77.3c-0.1,0-0.3,0-0.4,0c3-3.3,6-6.6,9-9.9c0.1,0,0.3,0,0.4,0c-1.5,1.7-3,3.3-4.5,5
						c-0.4,0.4-0.8,0.9-1.2,1.3c-0.3,0.4-0.8,0.9-1.2,1.3c-0.3,0.4-0.8,0.9-1.1,1.2C140,76.5,139.7,77.1,139.2,77.3z"/>
				</defs>
				<clipPath id="SVGID_8_">
					<use xlink:href="#SVGID_7_"  style="overflow:visible;"/>
				</clipPath>
				<g class="st7">
					<path class="st4" d="M195.2,74.8l-9,9.9c-3-1.1-22.8-8-42.3-7.6c-0.5,0-0.9,0-1.4,0c-1,0-2,0.1-3,0.2c-0.1,0-0.2,0-0.3,0
						c-1.1,0.1-2.1,0.2-3.2,0.3c-0.1,0-0.3,0-0.4,0.1l9-9.9c0.1,0,0.3,0,0.4-0.1c1-0.1,2.1-0.3,3.2-0.3c0.1,0,0.2,0,0.3,0
						c1-0.1,2-0.1,3-0.2c0.5,0,0.9,0,1.4,0C172.4,66.8,192.2,73.7,195.2,74.8"/>
				</g>
			</g>
		</g>
		<g class="st2">
			<g>
				<defs>
					<path id="SVGID_9_" d="M138.8,77.4c-0.9,0.1-1.9,0.2-2.8,0.3c0.3-0.3,0.7-0.8,1.1-1.2c0.3-0.4,0.8-0.9,1.1-1.2
						c0.3-0.4,0.8-0.9,1.2-1.3c0.4-0.4,0.8-0.9,1.2-1.3s0.8-0.9,1.2-1.3c0.3-0.4,0.8-0.9,1.2-1.3c0.3-0.4,0.8-0.9,1.1-1.2
						c0.3-0.3,0.7-0.8,1.1-1.2c0.9-0.1,1.8-0.2,2.8-0.3c-1.5,1.7-3,3.3-4.5,5c-0.4,0.4-0.8,0.9-1.2,1.3c-0.2,0.2-0.4,0.5-0.6,0.6
						c-0.2,0.2-0.4,0.4-0.6,0.6c-0.3,0.4-0.8,0.9-1.1,1.2C139.6,76.6,139.3,77.2,138.8,77.4z"/>
				</defs>
				<clipPath id="SVGID_10_">
					<use xlink:href="#SVGID_9_"  style="overflow:visible;"/>
				</clipPath>
				<g class="st8">
					<path class="st4" d="M195.2,74.8l-9,9.9c-3-1.1-22.8-8-42.3-7.6c-0.5,0-0.9,0-1.4,0c-1,0-2,0.1-3,0.2c-0.1,0-0.2,0-0.3,0
						c-1.1,0.1-2.1,0.2-3.2,0.3c-0.1,0-0.3,0-0.4,0.1l9-9.9c0.1,0,0.3,0,0.4-0.1c1-0.1,2.1-0.3,3.2-0.3c0.1,0,0.2,0,0.3,0
						c1-0.1,2-0.1,3-0.2c0.5,0,0.9,0,1.4,0C172.4,66.8,192.2,73.7,195.2,74.8"/>
				</g>
			</g>
		</g>
		<g class="st2">
			<g>
				<defs>
					<path id="SVGID_11_" d="M136.1,77.7c-0.1,0-0.3,0-0.4,0.1l9-9.9c0.1,0,0.3,0,0.4-0.1c-1.5,1.7-3,3.3-4.5,5
						c-0.4,0.4-0.8,0.9-1.2,1.3c-0.2,0.2-0.4,0.5-0.6,0.6c-0.7,0.8-1.5,1.6-2.2,2.5C136.4,77.3,136.3,77.6,136.1,77.7z"/>
				</defs>
				<clipPath id="SVGID_12_">
					<use xlink:href="#SVGID_11_"  style="overflow:visible;"/>
				</clipPath>
				<g class="st9">
					<path class="st4" d="M195.2,74.8l-9,9.9c-3-1.1-22.8-8-42.3-7.6c-0.5,0-0.9,0-1.4,0c-1,0-2,0.1-3,0.2c-0.1,0-0.2,0-0.3,0
						c-1.1,0.1-2.1,0.2-3.2,0.3c-0.1,0-0.3,0-0.4,0.1l9-9.9c0.1,0,0.3,0,0.4-0.1c1-0.1,2.1-0.3,3.2-0.3c0.1,0,0.2,0,0.3,0
						c1-0.1,2-0.1,3-0.2c0.5,0,0.9,0,1.4,0C172.4,66.8,192.2,73.7,195.2,74.8"/>
				</g>
			</g>
		</g>
		<g class="st2">
			<g>
				<defs>
					<path id="SVGID_13_" d="M135.6,77.7c3-3.3,6-6.6,9-9.9c0,0,0,0,0.1,0L135.6,77.7C135.7,77.7,135.6,77.7,135.6,77.7z"/>
				</defs>
				<clipPath id="SVGID_14_">
					<use xlink:href="#SVGID_13_"  style="overflow:visible;"/>
				</clipPath>
				<g class="st10">
					<path class="st4" d="M144.7,67.8l-9,9.9c-0.2,0-0.3,0-0.5,0.1c-0.2,0-0.4,0.1-0.6,0.1l9-9.9c0.2,0,0.4-0.1,0.6-0.1
						C144.4,67.8,144.5,67.8,144.7,67.8"/>
				</g>
			</g>
		</g>
		<g class="st2">
			<g>
				<defs>
					<path id="SVGID_15_" d="M135.6,77.7c-0.2,0-0.3,0-0.4,0.1c0.3-0.3,0.7-0.8,1.1-1.2c0.3-0.4,0.8-0.9,1.1-1.2
						c0.3-0.4,0.8-0.9,1.2-1.3c0.4-0.4,0.8-0.9,1.2-1.3s0.8-0.9,1.2-1.3c0.3-0.4,0.8-0.9,1.2-1.3c0.3-0.4,0.8-0.9,1.1-1.2
						c0.3-0.3,0.7-0.8,1.1-1.2c0.1,0,0.2,0,0.4-0.1c-2.7,3-5.5,6-8.2,9c-0.1,0.2-0.3,0.3-0.4,0.5c0,0,0,0-0.1,0.1s-0.1,0.2-0.2,0.2
						C135.7,77.6,135.7,77.7,135.6,77.7C135.7,77.7,135.6,77.7,135.6,77.7z"/>
				</defs>
				<clipPath id="SVGID_16_">
					<use xlink:href="#SVGID_15_"  style="overflow:visible;"/>
				</clipPath>
				<g class="st11">
					<path class="st4" d="M144.7,67.8l-9,9.9c-0.2,0-0.3,0-0.5,0.1c-0.2,0-0.4,0.1-0.6,0.1l9-9.9c0.2,0,0.4-0.1,0.6-0.1
						C144.4,67.8,144.5,67.8,144.7,67.8"/>
				</g>
			</g>
		</g>
		<g class="st2">
			<g>
				<defs>
					<path id="SVGID_17_" d="M135.2,77.8c-0.2,0-0.4,0.1-0.6,0.1l9-9.9c0.2,0,0.4-0.1,0.6-0.1c-1.5,1.7-3,3.3-4.5,5
						c-0.6,0.6-1.2,1.3-1.8,1.9c-0.2,0.2-0.4,0.4-0.6,0.6c-0.3,0.4-0.8,0.9-1.1,1.2C136,77,135.6,77.6,135.2,77.8z"/>
				</defs>
				<clipPath id="SVGID_18_">
					<use xlink:href="#SVGID_17_"  style="overflow:visible;"/>
				</clipPath>
				<g class="st12">
					<path class="st4" d="M144.7,67.8l-9,9.9c-0.2,0-0.3,0-0.5,0.1c-0.2,0-0.4,0.1-0.6,0.1l9-9.9c0.2,0,0.4-0.1,0.6-0.1
						C144.4,67.8,144.5,67.8,144.7,67.8"/>
				</g>
			</g>
		</g>
		<g class="st2">
			<g>
				<defs>
					<path id="SVGID_19_" d="M134.6,77.9c-0.2,0-0.4,0-0.6,0.1c0.3-0.3,0.7-0.8,1.1-1.2c0.3-0.4,0.8-0.9,1.1-1.2
						c0.3-0.4,0.8-0.9,1.2-1.3s0.8-0.9,1.2-1.3c0.4-0.4,0.8-0.9,1.2-1.3c0.3-0.4,0.8-0.9,1.2-1.3c0.3-0.4,0.8-0.9,1.1-1.2
						c0.3-0.3,0.7-0.8,1.1-1.2c0.2,0,0.4,0,0.6-0.1C140.9,70.9,138.2,76,134.6,77.9z"/>
				</defs>
				<clipPath id="SVGID_20_">
					<use xlink:href="#SVGID_19_"  style="overflow:visible;"/>
				</clipPath>
				<g class="st13">
					<path class="st4" d="M143.6,68l-9,9.9c-0.2,0-0.4,0-0.6,0.1c-0.2,0-0.4,0-0.5,0.1C110.1,81.4,92,97.5,91.1,98.4l9-9.9
						c1-0.8,19-16.9,42.4-20.3c0.2,0,0.4,0,0.5-0.1C143.2,68,143.4,68,143.6,68"/>
				</g>
			</g>
		</g>
		<g class="st2">
			<g>
				<defs>
					<path id="SVGID_21_" d="M133.5,78L133.5,78c3-3.3,6-6.6,9-9.9l0,0c0.2,0,0.4,0,0.5-0.1c-3,3.3-6,6.6-9,9.9
						C133.8,78,133.6,78,133.5,78z"/>
				</defs>
				<clipPath id="SVGID_22_">
					<use xlink:href="#SVGID_21_"  style="overflow:visible;"/>
				</clipPath>
				<g class="st14">
					<path class="st4" d="M143.6,68l-9,9.9c-0.2,0-0.4,0-0.6,0.1c-0.2,0-0.4,0-0.5,0.1C110.1,81.4,92,97.5,91.1,98.4l9-9.9
						c1-0.8,19-16.9,42.4-20.3c0.2,0,0.4,0,0.5-0.1C143.2,68,143.4,68,143.6,68"/>
				</g>
			</g>
		</g>
		<g>
			<path class="st15" d="M142.2,61c2.7-0.4,5.4-0.6,8.1-0.6c21.1-0.4,41.6,7.4,42.7,7.8c0.8,2.3,1.5,4.5,2.2,6.7
				c-3-1.1-22.8-8-42.3-7.6c-0.5,0-0.9,0-1.4,0c-1,0-2,0.1-3,0.2c-0.1,0-0.2,0-0.3,0c-1.1,0.1-2.1,0.2-3.2,0.3c-0.1,0-0.3,0-0.4,0.1
				c-0.2,0-0.3,0-0.5,0.1c-0.2,0-0.4,0.1-0.6,0.1s-0.4,0-0.6,0.1c-0.2,0-0.4,0-0.5,0.1C119,71.6,100.9,87.7,100,88.6
				c0.4,1.6,0.9,3.2,1.3,4.8c0.3,0.9,0.6,1.9,0.9,2.8c-1.9-4.5-3.5-9.3-4.8-14.4c1-0.8,19.1-17,42.4-20.3c0.4-0.1,0.8-0.1,1.1-0.1
				C141.5,61.1,141.9,61,142.2,61z"/>
		</g>
		<g>
			<path class="st1" d="M142.4,68.1c0.3,0,0.5-0.1,0.6-0.1c0.2,0,0.4,0,0.6-0.1c0.2,0,0.4-0.1,0.6-0.1c0.1,0,0.2,0,0.4-0.1
				c0.2,0,0.3,0,0.5-0.1c1-0.1,2.1-0.3,3.2-0.3c1.2-0.1,2.2-0.2,3.2-0.2c0.5,0,0.9,0,1.4,0c19.5-0.4,39.4,6.6,42.3,7.6
				c12.1,41.8-9.6,68.4-19.8,78.1c-2.9,2.8-4.8,4.1-4.9,4.2c-2.4-0.7-48.5-13.9-68.2-61.1c-0.3-0.9-0.6-1.9-0.9-2.8
				c-0.5-1.6-0.9-3.2-1.3-4.8C101,87.5,119.1,71.4,142.4,68.1z"/>
		</g>
		<g>
			<g>
				<path class="st16" d="M98.1,61.4c0.9-0.1,1.9,0.4,2.7,1.4c0.1,0.1,0.2,0.2,0.2,0.3c-0.4,0.3-0.9,0.6-1.3,0.9
					c-0.1-0.1-0.2-0.3-0.3-0.4c-0.4-0.5-0.7-0.6-1-0.6c-0.1,0-0.3,0.1-0.4,0.2c-0.4,0.3-0.5,0.7,0.1,1.4c1.5,1.9,4.4,0.4,6.5,3
					c1.2,1.5,1.1,2.8-0.1,3.6c-0.4,0.3-0.7,0.4-1.1,0.5c-0.9,0.1-1.8-0.4-2.7-1.4c-0.1-0.2-0.3-0.4-0.5-0.6c0.4-0.3,0.8-0.6,1.2-0.9
					c0.2,0.2,0.4,0.4,0.5,0.7c0.4,0.5,0.7,0.6,1,0.6c0.1,0,0.3-0.1,0.4-0.2c0.4-0.3,0.5-0.7,0-1.4c-1.5-1.9-4.4-0.4-6.5-3
					c-1.2-1.4-1.2-2.7,0.1-3.7C97.4,61.6,97.8,61.5,98.1,61.4z"/>
			</g>
			<g>
				<path class="st16" d="M109.7,54.6c1.8,3.4,3.6,6.8,5.3,10.2c-0.6,0.3-1.3,0.7-1.9,1c-1.3-1.6-2.6-3.2-4-4.9c1,1.8,2,3.6,2.9,5.4
					c-0.6,0.3-1.3,0.7-1.9,1.1c-2.5-3-5.1-6-7.7-9c0.5-0.3,0.9-0.5,1.4-0.8c2,2.4,4,4.7,6,7.1c-1.5-2.7-3-5.3-4.5-7.9
					c0.5-0.3,1-0.5,1.4-0.8c2,2.4,4,4.8,5.9,7.3c-1.4-2.7-2.9-5.4-4.4-8.1C108.8,55.1,109.3,54.9,109.7,54.6z"/>
			</g>
			<g>
				<path class="st16" d="M115.3,52.2c1.9,3.3,3.8,6.7,5.6,10.1c-0.5,0.2-1,0.4-1.5,0.6c-1.9-3.3-3.8-6.7-5.7-10
					C114.3,52.7,114.8,52.5,115.3,52.2z"/>
			</g>
			<g>
				<path class="st16" d="M131.6,47.4c1.6-0.2,2.7,0.6,3.3,2.2c0,0.1,0.1,0.2,0.1,0.3c-0.5,0.1-1.1,0.2-1.6,0.3
					c-0.1-0.1-0.1-0.3-0.2-0.4c-0.3-0.7-0.6-1-1.2-0.9c0,0,0,0-0.1,0c-0.6,0.1-0.8,0.5-0.5,1.2c0.8,2.2,4.3,2,5.3,5
					c0.6,1.7,0.1,2.8-1.6,3.1c-0.1,0-0.1,0-0.2,0c-1.5,0.2-2.7-0.6-3.3-2.2c-0.1-0.2-0.2-0.4-0.2-0.7c0.5-0.1,1.1-0.2,1.6-0.3
					c0.1,0.3,0.2,0.5,0.3,0.8c0.3,0.7,0.7,0.9,1.2,0.9c0,0,0,0,0.1,0c0.5-0.1,0.8-0.4,0.5-1.2c-0.8-2.2-4.2-2-5.3-5
					c-0.6-1.7-0.1-2.8,1.6-3.2C131.5,47.5,131.5,47.5,131.6,47.4z"/>
			</g>
			<g>
				<path class="st16" d="M122.5,49.7c1.4-0.2,2.4,0.5,3.1,2c0.1,0.1,0.1,0.2,0.2,0.3c-0.5,0.2-1,0.3-1.6,0.5
					c-0.1-0.1-0.1-0.3-0.2-0.4c-0.3-0.6-0.7-0.9-1.1-0.8c-0.1,0-0.1,0-0.2,0c-0.5,0.2-0.7,0.5-0.3,1.3c1,2.1,4.4,1.6,5.7,4.5
					c0.8,1.7,0.4,2.8-1.2,3.3c-0.2,0.1-0.4,0.1-0.5,0.1c-1.3,0.2-2.4-0.5-3.1-2c-0.1-0.2-0.2-0.4-0.3-0.6c0.5-0.2,1-0.3,1.5-0.5
					c0.1,0.2,0.2,0.5,0.3,0.7c0.3,0.6,0.7,0.9,1.1,0.8c0.1,0,0.1,0,0.2,0c0.5-0.2,0.7-0.5,0.4-1.3c-1-2.1-4.3-1.6-5.8-4.5
					c-0.8-1.6-0.4-2.9,1.2-3.3C122.2,49.7,122.4,49.7,122.5,49.7z"/>
			</g>
			<g>
				<path class="st16" d="M178.8,49.2c1.6,0.4,3.3,0.9,4.9,1.3c-0.1,0.5-0.1,1-0.2,1.5c-1-0.3-2.1-0.6-3.1-0.8
					c-0.1,1-0.3,1.9-0.4,2.9c0.8,0.2,1.6,0.4,2.4,0.7c-0.1,0.5-0.1,1-0.2,1.5c-0.8-0.2-1.6-0.4-2.4-0.7c-0.1,1-0.3,2-0.4,3
					c1,0.3,2,0.5,3,0.8c-0.1,0.5-0.1,1-0.2,1.5c-1.6-0.4-3.1-0.9-4.7-1.3C177.9,56.1,178.3,52.7,178.8,49.2z"/>
			</g>
			<g class="st2">
				<g>
					<path class="st16" d="M171.2,47.6c1.8,0.3,2.7,1.4,2.6,3.1c-0.1,1.8-0.2,3.6-0.2,5.3c-0.1,1.3-0.6,2-1.6,2.2
						c-0.3,0-0.7,0-1.1,0c-0.9-0.2-1.8-0.3-2.8-0.5c0.1-3.5,0.1-7.1,0.3-10.6C169.2,47.2,170.2,47.4,171.2,47.6z M171.9,50.3
						c0-0.8-0.3-1.1-0.9-1.2c-0.3-0.1-0.7-0.1-1-0.2c-0.1,2.5-0.2,5-0.2,7.6c0.3,0.1,0.7,0.1,1,0.2c0.1,0,0.3,0,0.4,0
						c0.3,0,0.5-0.3,0.6-0.9C171.8,54,171.9,52.1,171.9,50.3"/>
				</g>
				<g>
					<path class="st16" d="M159,46c0.9,0.1,1.8,0.2,2.7,0.2c0.8,3.6,1.6,7.3,2.4,10.9c-0.6-0.1-1.2-0.1-1.8-0.2
						c-0.1-0.7-0.3-1.3-0.4-2c-0.7-0.1-1.4-0.1-2.2-0.2c-0.1,0.6-0.1,1.3-0.2,1.9c-0.5,0-1.1-0.1-1.6-0.1
						C158.3,53.1,158.6,49.5,159,46z M161.6,53.5c-0.4-1.8-0.8-3.7-1.2-5.5c-0.2,1.8-0.3,3.6-0.5,5.3
						C160.5,53.4,161,53.5,161.6,53.5"/>
				</g>
				<g>
					<path class="st16" d="M144.8,45.9c0.8,0,1.7-0.1,2.5-0.1c0.9,2.5,1.8,5.1,2.8,7.6c-0.1-2.6-0.1-5.1-0.2-7.7c0.8,0,1.7,0,2.5,0
						c0.6,3.6,1.2,7.2,1.9,10.8c-0.5,0-1.1,0-1.6,0c-0.5-2.6-0.9-5.2-1.4-7.7c0,2.6,0.1,5.2,0.2,7.8c-0.5,0-1.1,0-1.6,0
						c-0.9-2.5-1.9-5.1-2.8-7.6c0.5,2.5,1,5.1,1.5,7.6c-0.5,0-1,0-1.5,0.1C146.2,53,145.5,49.4,144.8,45.9z"/>
				</g>
			</g>
		</g>
		<g>
			<polygon class="st16" points="154,77.2 159.5,95.2 177.1,92.7 181.8,108.1 164.3,110.5 169.8,128.5 154.8,130.6 149.2,112.7 
				131.7,115.1 127,99.8 144.5,97.3 139,79.4 			"/>
		</g>
		<path class="st0" d="M239.1,139.3l-2.2-1.9c-3.4-2.9-7.2-5.3-11.1-7.1c-4.3-2-8.8-3-13.2-3.1h-0.2l-9.4-0.1l-27.7-0.3l-15.9-0.2
			l0,0h-2l-9.6-0.1l0,0l-21.6-0.2l0,0l-22.7-0.2L82.1,126h-0.3c-8.4,0-16,4-22.8,12c-6,6.9-10.4,15.6-13.2,26l-0.5,2
			c-3,11.2-2.6,20.8,1.2,28.5l0.1,0.2c3.6,7,9.6,11.4,17.2,13L121,222l16.2-11.1h33.3l15.5,10.6l55.2-13.8c1-0.2,1.9-0.4,2.7-0.7
			l0.2-0.1l0,0c5.2-1.6,8.4-4.5,10.3-7.1l0.1-0.1c3.1-4.2,5.8-11.4,1.2-22.3c-1.3-3.1-2.9-5.8-4.4-8.8L239.1,139.3z M216.4,204
			L216.4,204L216.4,204L216.4,204z"/>
		<path class="st17" d="M96,144.9l-0.2-0.4c-1.4-2.6-3.4-4.7-5.8-6.2c-2.3-1.5-5.1-2.3-8.2-2.3c-5.4-0.1-10.5,2.8-15.3,8.5
			c-4.9,5.7-8.7,13.1-11.1,22.1l-0.5,2c-2.3,8.7-2.2,15.9,0.5,21.4c2.9,5.5,7.8,8.3,14.6,8.3c4.7,0,8.8-0.8,12.2-2.3
			c3.3-1.6,5.9-3.3,7.8-5.3l0.3-0.4l0.1-0.5l2.9-22.3l0.2-1.2h-0.9l-15-0.1h-0.9l-0.2,1.2l-1.6,8.2l-0.2,1.1l0.8,0.1l5.5,0.6l-1.3,8
			c-0.6,0.3-1.3,0.6-2.2,0.9c-1.1,0.4-2.6,0.6-4.4,0.5c-3.9,0-6.5-1.6-7.8-4.9c-1.3-3.3-1.3-7.8,0-13.5l0.5-2.1
			c1.3-5.8,3.4-10.5,6-14s5.4-5.1,8.7-5.1c1.5,0,2.7,0.3,3.8,0.8c0.9,0.4,1.6,1,2.1,1.7l-0.1,7.4v1H87h6.2h0.9l0.2-1.2l1.5-11.7
			L96,144.9z"/>
		<path class="st17" d="M125.9,173.6l-8.1-36.5l-0.2-0.8H117l-5.8-0.1h-0.6l-0.2,0.8l-12.5,36.4l-1.8,0.3l-0.8,0.1l-0.1,1l-0.6,5.1
			l-0.1,1.2h0.9h11.5h0.9l0.1-1.2l0.4-5.1l0.1-1l-0.7-0.2l-1.2-0.3l1.2-3.7h9.2l0.8,3.7l-1.2,0.3l-0.8,0.2v1l-0.2,5.1l-0.1,1.2h0.9
			h11.5h0.9v-1.2v-5.1v-1l-0.8-0.2H125.9z M115.1,161.2h-4.8l3-10.2L115.1,161.2z"/>
		<polygon class="st17" points="174.8,175.3 174.6,174.3 173.9,174.1 171,173.4 166.6,145 169,144.4 169.6,144.2 169.5,143.2 
			168.6,138.1 168.4,136.9 167.6,136.9 157.1,136.8 156.5,136.8 156.5,137.6 152.3,165.8 143.3,137.4 143,136.6 142.5,136.6 
			135,136.5 132,136.5 131.2,136.5 131.2,137.7 131.3,142.8 131.3,143.8 132,144 134.4,144.7 135.1,173.3 132.4,174 131.6,174.2 
			131.6,175.2 131.7,180.3 131.7,181.5 132.6,181.5 146.6,181.5 147.6,181.5 147.5,180.3 147.1,175.2 147.1,174.2 146.3,174 
			143.5,173.3 143.2,167.6 143.2,167.6 143.2,167.6 142.2,156.2 150.5,180.7 150.8,181.5 151.5,181.5 156,181.5 156.7,181.5 
			156.8,180.8 160.8,156.2 161.9,167.7 161.9,167.7 161.9,167.7 162.6,173.4 159.9,174.1 159.2,174.3 159.3,175.3 159.9,180.4 
			160,181.5 160.9,181.5 174.9,181.6 175.8,181.6 175.7,180.4 		"/>
		<polygon class="st17" points="204.2,169 203.9,167.8 203,167.8 198.1,167.7 197.3,167.7 197.5,168.8 198.3,172.8 189.5,172.8 
			187.3,163.1 197.1,163.1 198,163.1 197.7,161.9 196,155.4 195.7,154.2 194.8,154.2 185.4,154.2 183.5,145.9 191.4,146 
			192.6,149.9 192.9,151 193.7,151 198.3,151.1 199.2,151.1 198.8,149.9 195.6,138.3 195.3,137.2 194.5,137.2 175.1,137 172,136.9 
			171.2,136.9 171.5,138.1 172.4,143.2 172.5,144.2 173.2,144.4 175.8,145.1 181.2,173.5 178.6,174.2 177.9,174.3 178.1,175.3 
			179,180.4 179.2,181.6 180.2,181.6 206.8,181.7 207.8,181.7 207.4,180.5 		"/>
		<path class="st17" d="M246.4,181.3c-2.1-5-5.2-9.1-9.1-12.2c-3.7-3-8.4-5.4-13.9-7.2c-3.6-1.4-6.3-2.6-7.9-3.8
			c-1.4-1-2.3-2.3-2.8-3.8c-0.6-1.7-0.5-3.1,0.1-4.2c0.7-1.1,2-1.7,4-1.7c1.4,0,2.9,0.2,4.3,0.7c1.2,0.4,2.2,0.8,3,1.3l3.8,7.3
			l0.5,1h0.7h6.3h0.9l-0.5-1.2l-4.8-11.6l-0.2-0.5l-0.4-0.4c-2.7-2.3-5.7-4.2-8.8-5.6c-3-1.4-6.1-2.1-9.2-2.2l0,0l0,0
			c-4.1,0-7.1,1.6-9,4.6c-2,3.1-2.3,7.3-0.8,12.3s4.1,9.1,7.8,12c3.6,2.8,8.4,5.2,14.4,7.2c3.3,1.1,5.8,2.3,7.3,3.5
			c1.4,1.1,2.5,2.5,3.2,4.4c0.7,1.8,0.7,3.1,0,4.2c-0.7,1.1-2.3,1.7-4.6,1.7c-1.9,0-3.7-0.3-5.4-0.9c-1.5-0.5-2.8-1.1-3.8-1.9
			l-3.4-7.6l-0.4-1h-0.8H210h-0.9l0.3,1.2l3.5,11.9l0.1,0.5l0.4,0.3c2.9,2.6,6.2,4.7,9.8,6.2c3.7,1.5,7.5,2.2,11.5,2.2
			c5.6,0,9.5-1.5,11.8-4.4C248.6,190.8,248.6,186.6,246.4,181.3z"/>
		<g>
			<path class="st17" d="M99.9,188h1.4v7.5h2.3v1.3h-3.7V188z"/>
			<path class="st17" d="M120.6,191.7h1.9v1.3h-1.9v2.6h2.4v1.3h-3.8V188h3.8v1.3h-2.4V191.7z"/>
			<path class="st17" d="M143.4,196.8H142l-0.2-1.6h-1.7l-0.2,1.6h-1.3l1.4-8.8h2L143.4,196.8z M140.2,194h1.3l-0.7-4.4L140.2,194z"
				/>
			<path class="st17" d="M161.1,191.9h1.9v2.8c0,1.4-0.7,2.2-2.1,2.2s-2.1-0.8-2.1-2.2v-4.6c0-1.4,0.7-2.2,2.1-2.2s2.1,0.8,2.1,2.2
				v0.9h-1.3v-1c0-0.6-0.3-0.9-0.7-0.9s-0.7,0.2-0.7,0.9v4.7c0,0.6,0.3,0.9,0.7,0.9s0.7-0.2,0.7-0.9v-1.6h-0.6L161.1,191.9
				L161.1,191.9z"/>
			<path class="st17" d="M180.4,188v6.8c0,0.6,0.3,0.9,0.7,0.9s0.7-0.2,0.7-0.9V188h1.3v6.7c0,1.4-0.7,2.2-2.1,2.2s-2.1-0.8-2.1-2.2
				V188H180.4z"/>
			<path class="st17" d="M200.5,191.7h1.9v1.3h-1.9v2.6h2.4v1.3h-3.8V188h3.8v1.3h-2.4V191.7z"/>
		</g>
		<g>
			<g>
				<g>
					<path class="st18" d="M147.9,81.8c0.4-0.1,0.9,0.1,1.2,0.5l4.8,5.6c0.6,0.7,0.3,1.7-0.5,1.8l-5.9,0.8c-0.8,0.1-1.6-0.7-1.5-1.5
						l1.1-6.4C147.2,82.1,147.5,81.9,147.9,81.8z"/>
				</g>
			</g>
		</g>
		<g>
			<g>
				<g>
					<path class="st18" d="M166.1,97.8c0.1,0,0.3,0,0.5,0l7.3,2.3c0.8,0.3,1.2,1.3,0.5,1.8l-5.3,4.1c-0.1,0.1-0.3,0.1-0.4,0.2
						c-0.5,0.1-1.1-0.3-1.3-0.9l-2-6.5C165.3,98.4,165.6,97.9,166.1,97.8z"/>
				</g>
			</g>
		</g>
		<g>
			<g>
				<g>
					<path class="st18" d="M162,116.7c0.6-0.1,1.3,0.6,1.2,1.2l-1.2,7.3c-0.1,0.4-0.3,0.6-0.6,0.6s-0.7-0.1-0.9-0.4l-5.4-6.3
						c-0.5-0.6-0.3-1.3,0.4-1.4L162,116.7z"/>
				</g>
			</g>
		</g>
		<g>
			<g>
				<g>
					<path class="st18" d="M140.3,101.4c0.4-0.1,0.9,0.2,1.1,0.7l2.1,7c0.2,0.5-0.1,0.9-0.6,1c-0.1,0-0.3,0-0.4,0l-7.9-2.5
						c-0.7-0.2-1-1.1-0.5-1.5l5.7-4.4C140.1,101.5,140.2,101.4,140.3,101.4z"/>
				</g>
			</g>
		</g>
	</g>
</g>
</svg>
